<?xml version="1.0" encoding="utf-8"?>
<!-- Generator: Adobe Illustrator 21.0.0, SVG Export Plug-In . SVG Version: 6.00 Build 0)  -->
<svg version="1.1" id="Capa_1" xmlns="http://www.w3.org/2000/svg" xmlns:xlink="http://www.w3.org/1999/xlink" x="0px" y="0px"
	 viewBox="0 0 150 150" style="enable-background:new 0 0 150 150;" xml:space="preserve">
<style type="text/css">
	.st0{fill:url(#SVGID_1_);}
	.st1{fill:url(#SVGID_2_);}
	.st2{fill:url(#SVGID_3_);}
</style>
<title>agilidad</title>
<linearGradient id="SVGID_1_" gradientUnits="userSpaceOnUse" x1="48.8765" y1="71.6849" x2="67.8551" y2="71.6849">
	<stop  offset="0" style="stop-color:#8DBA38"/>
	<stop  offset="1" style="stop-color:#E9E73C"/>
</linearGradient>
<path class="st0" d="M66.8,52.7c0.9-0.4,1.3-1.4,0.9-2.3c-0.4-0.9-1.4-1.3-2.3-0.9l0,0C51.7,55.3,45.2,71.1,51,84.9
	c1.4,3.2,3.3,6.2,5.8,8.6c0.7,0.7,1.8,0.7,2.5,0l0,0c0.7-0.7,0.7-1.8,0-2.5c-9.2-9.2-9.2-24.1,0-33.3C61.5,55.6,64,53.8,66.8,52.7
	L66.8,52.7z"/>
<linearGradient id="SVGID_2_" gradientUnits="userSpaceOnUse" x1="93.6" y1="99.65" x2="114.025" y2="99.65">
	<stop  offset="0" style="stop-color:#8DBA38"/>
	<stop  offset="1" style="stop-color:#E9E73C"/>
</linearGradient>
<path class="st1" d="M104.2,107.7c0.7,0.7,1.8,0.7,2.5,0l6.8-6.8c0.7-0.7,0.7-1.8,0-2.5l-6.8-6.8c-0.7-0.7-1.8-0.7-2.5,0
	s-0.7,1.8,0,2.5l3.7,3.7H95.4c-1,0-1.8,0.8-1.8,1.8s0.8,1.8,1.8,1.8l0,0h12.7l-3.9,3.9C103.5,105.9,103.5,107,104.2,107.7
	L104.2,107.7z"/>
<linearGradient id="SVGID_3_" gradientUnits="userSpaceOnUse" x1="38.5" y1="73.7875" x2="112.225" y2="73.7875">
	<stop  offset="0" style="stop-color:#8DBA38"/>
	<stop  offset="1" style="stop-color:#E9E73C"/>
</linearGradient>
<path class="st2" d="M40.3,107.1h11.5c1,0,1.8-0.8,1.8-1.8l0,0v-4H76c12.1,0,22.7-8,26-19.6c3.8-0.5,6.9-3.3,7.8-7
	c0.2-0.9-0.3-1.9-1.3-2.1c-0.9-0.2-1.9,0.3-2.1,1.3l0,0c-0.7,3.1-3.9,5.1-7,4.4s-5.1-3.9-4.4-7s3.9-5.1,7-4.4c1,0.2,1.9,0.7,2.7,1.5
	l-2.8,2.8l-0.7-1c-0.5-0.8-1.5-1.1-2.4-0.7C98,70,97.7,71,98.1,71.9c0.1,0.1,0.1,0.2,0.2,0.3l1.9,2.6c0.3,0.4,0.8,0.7,1.3,0.7h0.2
	c0.5,0,0.9-0.2,1.2-0.5l8.8-8.8c0.7-0.7,0.7-1.8,0-2.5c-0.7-0.7-1.8-0.7-2.5,0l0,0l-2,2c-1.7-1.7-4.1-2.6-6.5-2.6h-0.1
	C96.3,53.7,87,47.5,76.7,47.3l3.8-3.8c0.7-0.7,0.7-1.8,0-2.5s-1.8-0.7-2.5,0l-6.8,6.8c-0.7,0.7-0.7,1.8,0,2.5l0,0l6.8,6.8
	c0.3,0.3,0.8,0.5,1.2,0.5c1,0,1.8-0.8,1.8-1.8c0-0.5-0.2-0.9-0.5-1.2l-3.8-3.8C85.4,51.1,93.2,56.2,97,64c-4.7,2-7,7.5-5,12.2
	c1.1,2.7,3.4,4.6,6.2,5.4c-3,9.7-12,16.2-22.2,16.2H53.5v-4c0-1-0.8-1.8-1.8-1.8H40.3c-1,0-1.7,0.8-1.8,1.8v11.4
	C38.5,106.3,39.3,107,40.3,107.1L40.3,107.1z M42.1,95.6H50v7.9h-7.9V95.6z"/>
</svg>
