<?xml version="1.0" encoding="utf-8"?>
<!-- Generator: Adobe Illustrator 21.0.0, SVG Export Plug-In . SVG Version: 6.00 Build 0)  -->
<svg version="1.1" id="Capa_1" xmlns="http://www.w3.org/2000/svg" xmlns:xlink="http://www.w3.org/1999/xlink" x="0px" y="0px"
	 viewBox="0 0 51 51" style="enable-background:new 0 0 51 51;" xml:space="preserve">
<style type="text/css">
	.st0{fill:#FFFFFF;}
</style>
<title>ubicacion</title>
<path class="st0" d="M30.5,0.6c-13.8-2.8-27.2,6.2-30,20c-0.2,1-0.4,2.1-0.5,3.1v3.4c0.2,1.3,0.4,2.7,0.7,4
	c2.3,10.2,10.7,17.9,21,19.4c0.7,0.1,1.4,0.2,2.1,0.3h3.4c1.3-0.2,2.6-0.4,3.9-0.7c10.2-2.3,18-10.6,19.5-21h0
	C52.6,15.8,43.8,3.3,30.5,0.6z M40.4,33.9c0,1.5-1.3,2.8-2.8,2.8H13.4c-1.6,0-2.8-1.3-2.8-2.8V22c0-0.3,0.3-0.5,0.6-0.3
	c1.3,1,3,2.3,9,6.6c1.2,0.9,3.3,2.8,5.4,2.8c2.1,0,4.2-1.9,5.4-2.8c5.9-4.3,7.7-5.6,9-6.6c0.2-0.2,0.6,0,0.6,0.3V33.9z M40.4,18.2
	c0,0.4-0.2,0.8-0.5,1.1c-1.8,1.4-2.4,1.9-10.1,7.5c-1,0.7-2.9,2.4-4.3,2.4c-1.3,0-3.3-1.7-4.3-2.4c-7.7-5.6-8.3-6.1-10.1-7.5
	c-0.3-0.3-0.5-0.7-0.5-1.1v-1.1c0-1.5,1.3-2.8,2.8-2.8h24.2c1.6,0,2.8,1.3,2.8,2.8V18.2z"/>
</svg>
