<?xml version="1.0" encoding="utf-8"?>
<!-- Generator: Adobe Illustrator 21.0.0, SVG Export Plug-In . SVG Version: 6.00 Build 0)  -->
<svg version="1.1" id="Capa_1" xmlns="http://www.w3.org/2000/svg" xmlns:xlink="http://www.w3.org/1999/xlink" x="0px" y="0px"
	 viewBox="0 0 1045 660" style="enable-background:new 0 0 1045 660;" xml:space="preserve">
<style type="text/css">
	.st0{opacity:0.1;fill:#050505;enable-background:new    ;}
	.st1{opacity:0.2;fill:#FFFFFF;enable-background:new    ;}
	.st2{fill:#99CC33;}
	.st3{fill:url(#SVGID_1_);}
	.st4{fill:#DBDBDB;}
	.st5{fill:url(#SVGID_2_);}
	.st6{fill:#444444;}
	.st7{fill:url(#SVGID_3_);}
	.st8{fill:#A6C8FF;}
	.st9{fill:#FFFCEB;}
	.st10{fill:#F4F4F4;}
	.st11{opacity:0.2;}
	.st12{fill:none;stroke:#050505;stroke-width:5.09;stroke-linecap:round;stroke-miterlimit:10;}
	.st13{opacity:0.2;fill:#050505;enable-background:new    ;}
	.st14{fill:none;stroke:#0E2533;stroke-width:5.06;stroke-linecap:round;stroke-linejoin:round;}
	.st15{fill:#445056;}
	.st16{fill:#B5211A;}
	.st17{fill:#FFC200;}
	.st18{fill:#76BF5A;}
	.st19{fill:#E8E80A;}
	.st20{fill:#606B1F;}
	.st21{fill:#DEE80A;}
	.st22{fill:#A5CC15;}
	.st23{fill:#DBB871;}
	.st24{fill:#EEFFC0;}
	.st25{fill:#E4E9FE;}
	.st26{fill:#73CBFD;}
	.st27{fill:#B3ED62;}
	.st28{fill:#F9FBFC;}
	.st29{fill:#C9CCCC;}
	.st30{fill:#B1BF49;}
	.st31{fill:#72470E;}
	.st32{fill:#302F2C;}
	.st33{fill:#534EB4;}
	.st34{fill:#D6EAA9;}
	.st35{fill:#72480E;}
	.st36{fill:#F7BF0D;}
	.st37{fill:#A8D832;}
	.st38{fill:#003757;}
	.st39{fill:#C27254;}
	.st40{fill:#343D22;}
	.st41{fill:#A9CC33;}
</style>
<title>home</title>
<path class="st0" d="M369.2,543.7h278c6.8,0,12.3,5.5,12.3,12.3l0,0c0,6.8-5.5,12.3-12.3,12.3h-278c-6.8,0-12.3-5.5-12.3-12.3l0,0
	C356.9,549.2,362.4,543.7,369.2,543.7z"/>
<path class="st1" d="M709.8,10.7c-41.7,0-79.9,23.4-98.8,60.6c-27.8-18.9-65.7-11.7-84.6,16.1c-1,1.4-1.9,2.9-2.8,4.5
	c-5.4,9.5-2,21.6,7.5,27c3,1.7,6.3,2.6,9.7,2.6h280.4c25.5,0,26.7-38.4,1.2-39.5c-0.5,0-1.1,0-1.6,0c-2.4,0-4.8,0.2-7.1,0.6
	C797.3,39.3,756,10.7,709.8,10.7z"/>
<path class="st1" d="M799.6,243.8c47,0,90,26.3,111.3,68.2c31.3-21.3,74-13.2,95.3,18.1c7.7,11.3,11.8,24.6,11.9,38.3H630
	c0.2-24.7,20.4-44.7,45.1-44.5c2.6,0,5.2,0.3,7.7,0.7C701.1,276,747.7,243.8,799.6,243.8z"/>
<path class="st1" d="M338.6,87.6c25.8,0,49.5,14.5,61.2,37.5c17.2-11.7,40.7-7.3,52.4,9.9c0.6,0.9,1.2,1.9,1.7,2.8
	c3.3,5.9,1.2,13.4-4.7,16.7c-1.8,1-3.9,1.6-6,1.6H269.6c-15.7,0-16.6-23.6-0.9-24.4c0.4,0,0.8,0,1.3,0c1.5,0,2.9,0.1,4.4,0.4
	C284.4,105.3,310,87.6,338.6,87.6z"/>
<path class="st1" d="M191.6,247.7c-47,0-90,26.3-111.3,68.2C68.9,308.1,55.5,304,41.7,304c-1.3,0-2.7,0-4,0.1
	c-43.8,2.5-41.4,68.1,2.5,68.1h321.1c-0.2-24.7-20.4-44.7-45.1-44.5c-2.6,0-5.2,0.3-7.7,0.7C290.1,279.9,243.6,247.7,191.6,247.7z"
	/>
<path class="st2" d="M851.5,203L851.5,203c-10.3-3.3-9.8-18.1,0.8-20.5l0,0c12.7-3,10-21.9-3.1-21l0,0c-10.8,0.7-15.6-13.3-6.7-19.4
	l0,0c10.8-7.4,1.4-24-10.5-18.5l0,0c-9.8,4.6-19.4-6.8-13.3-15.7l0,0c7.4-10.8-7.3-22.8-16.4-13.4l0,0c-7.5,7.8-20.5,0.7-18-9.9l0,0
	c3-12.7-15.1-18.7-20.2-6.6l0,0c-4.2,10-18.9,8.1-20.4-2.7l0,0c-1.8-13-20.8-11.9-21.2,1.1l0,0c-0.3,10.8-14.7,14.3-20,4.9l0,0
	c-6.3-11.4-23.7-3.6-19.4,8.7l0,0c3.6,10.2-8.5,18.7-16.9,11.8l0,0c-10-8.4-23.4,5.2-14.9,15.1l0,0c7.1,8.2-1.2,20.5-11.5,17l0,0
	c-12.4-4.2-20,13.3-8.4,19.5l0,0c9.6,5.1,6.3,19.6-4.5,20l0,0c-13.1,0.6-13.8,19.6-0.8,21.2l0,0c10.8,1.3,12.9,16,3,20.3l0,0
	c-12,5.2-5.8,23.3,6.9,20.1l0,0c10.5-2.7,17.8,10.2,10.1,17.9l0,0c-9.3,9.2,3,23.8,13.7,16.2l0,0c8.8-6.3,20.3,3.1,15.9,13l0,0
	c-5.3,12,11.4,21.1,18.6,10.2l0,0c6-9,20.1-4.4,19.5,6.4l0,0c-0.6,13.1,18.3,15.6,21,2.8l0,0c2.3-10.6,17.1-11.4,20.5-1.1l0,0
	c4.1,12.4,22.7,7.9,20.6-5l0,0c-1.7-10.7,11.8-16.8,18.7-8.5l0,0c8.3,10.1,24-0.8,17.4-12.1l0,0c-5.5-9.4,5-19.9,14.4-14.6l0,0
	c11.4,6.4,22.1-9.4,11.9-17.6l0,0c-8.5-6.8-2.6-20.4,8.2-18.9l0,0C859.7,225.6,864,206.9,851.5,203z M738.7,272.1
	c-46.5,0-84.2-37.7-84.2-84.1c0-46.5,37.7-84.2,84.1-84.2c46.5,0,84.2,37.7,84.2,84.1l0,0C822.8,234.5,785.1,272.1,738.7,272.1z"/>
<path class="st2" d="M622.9,152.6L622.9,152.6c-5-1.6-7.8-7-6.2-12.1c0.6-1.8,1.6-3.3,3.1-4.5l0,0c8.5-7,0.5-20.5-9.7-16.3l0,0
	c-4.9,2-10.5-0.4-12.5-5.3c-0.7-1.7-0.9-3.6-0.5-5.4l0,0c2.1-10.8-12.8-16-17.9-6.3l0,0c-2.5,4.7-8.3,6.5-13,4
	c-1.6-0.9-3-2.2-3.9-3.8l0,0c-5.4-9.6-20.1-4.1-17.8,6.7l0,0c1.1,5.2-2.2,10.3-7.4,11.4c-1.8,0.4-3.7,0.2-5.4-0.4l0,0
	c-10.3-3.9-18,9.8-9.3,16.5l0,0c4.2,3.2,4.9,9.3,1.7,13.5c-1.1,1.5-2.7,2.6-4.4,3.2l0,0c-10.4,3.6-7.5,19.1,3.5,18.7l0,0
	c5.3-0.2,9.8,3.9,9.9,9.2c0.1,1.9-0.4,3.7-1.3,5.3l0,0c-5.7,9.5,6.5,19.4,14.7,12l0,0c3.9-3.6,10-3.2,13.6,0.7
	c1.2,1.4,2.1,3.1,2.4,4.9l0,0c1.8,10.9,17.5,10.7,19-0.2l0,0c0.7-5.3,5.5-8.9,10.8-8.2c1.8,0.2,3.6,1,5,2.2l0,0
	c8.3,7.2,20.3-3,14.4-12.4l0,0c-2.8-4.5-1.5-10.4,3-13.2c1.6-1,3.4-1.5,5.2-1.5l0,0C630.8,171.5,633.4,156,622.9,152.6z
	 M571.4,186.8c-18.9,0-34.3-15.3-34.3-34.2s15.3-34.3,34.2-34.3s34.3,15.3,34.3,34.3l0,0C605.7,171.4,590.3,186.8,571.4,186.8
	L571.4,186.8z"/>
<path class="st2" d="M313.3,353.2L313.3,353.2c-5-1.6-7.8-7-6.2-12.1c0.6-1.8,1.6-3.3,3.1-4.5l0,0c8.5-7,0.5-20.5-9.7-16.3l0,0
	c-4.9,2-10.5-0.4-12.5-5.3c-0.7-1.7-0.9-3.6-0.5-5.4l0,0c2.1-10.8-12.8-16-17.9-6.3l0,0c-2.5,4.7-8.3,6.5-13,4
	c-1.6-0.9-3-2.2-3.9-3.8l0,0c-5.4-9.6-20.1-4.1-17.8,6.7l0,0c1.1,5.2-2.2,10.3-7.4,11.4c-1.8,0.4-3.7,0.2-5.4-0.4l0,0
	c-10.3-3.9-18,9.8-9.3,16.5l0,0c4.2,3.3,4.9,9.3,1.7,13.5c-1.1,1.5-2.7,2.6-4.4,3.2l0,0c-10.4,3.6-7.5,19.1,3.5,18.7l0,0
	c5.3-0.2,9.7,4,9.9,9.2c0.1,1.8-0.4,3.7-1.3,5.3l0,0c-5.6,9.5,6.5,19.4,14.7,12l0,0c3.9-3.6,10-3.2,13.6,0.7
	c1.2,1.4,2.1,3.1,2.3,4.9l0,0c1.8,10.9,17.5,10.7,19-0.2l0,0c0.8-5.2,5.6-8.9,10.9-8.1c1.8,0.3,3.5,1,4.9,2.2l0,0
	c8.3,7.2,20.3-3,14.4-12.4l0,0c-2.8-4.5-1.5-10.4,3-13.2c1.6-1,3.4-1.5,5.2-1.5l0,0C321.2,372.1,323.8,356.6,313.3,353.2z
	 M261.8,387.4c-18.9,0-34.3-15.3-34.3-34.2c0-18.9,15.3-34.3,34.2-34.3s34.3,15.3,34.3,34.2l0,0C296,372,280.7,387.4,261.8,387.4z"
	/>
<linearGradient id="SVGID_1_" gradientUnits="userSpaceOnUse" x1="553.1" y1="496.35" x2="463.4" y2="496.35">
	<stop  offset="0" style="stop-color:#C8C8C8"/>
	<stop  offset="1" style="stop-color:#787878"/>
</linearGradient>
<polygon class="st3" points="553.1,521.5 463.4,521.5 469,471.2 547.5,471.2 "/>
<path class="st4" d="M633.8,557.2H382.6c-11.8,0-21.3-9.6-21.4-21.3l0,0c0-11.8,9.6-21.3,21.4-21.3h251.2c11.8,0,21.3,9.6,21.3,21.3
	l0,0C655.1,547.6,645.6,557.2,633.8,557.2z"/>
<linearGradient id="SVGID_2_" gradientUnits="userSpaceOnUse" x1="361.2" y1="542.1" x2="655.1" y2="542.1">
	<stop  offset="0" style="stop-color:#C8C8C8"/>
	<stop  offset="1" style="stop-color:#787878"/>
</linearGradient>
<path class="st5" d="M633.8,539.4H382.6c-8.3,0-15.9-4.9-19.4-12.4c-1.3,2.8-2,5.8-2,8.9l0,0c0,11.8,9.6,21.3,21.4,21.3h251.2
	c11.8,0,21.3-9.6,21.3-21.3l0,0c0-3.1-0.7-6.1-2-8.9C649.7,534.6,642.1,539.4,633.8,539.4z"/>
<path class="st6" d="M541.3,525.5H411.1c-1.5,0-2.8-1.2-2.8-2.8l0,0c0-1.5,1.2-2.7,2.8-2.8h130.2c1.5,0,2.7,1.2,2.8,2.8l0,0
	C544,524.2,542.8,525.5,541.3,525.5z"/>
<path class="st6" d="M605.4,525.5h-47c-1.5,0-2.8-1.2-2.8-2.8l0,0c0-1.5,1.2-2.8,2.8-2.8h47c1.5,0,2.8,1.2,2.8,2.8l0,0l0,0
	C608.1,524.2,606.9,525.5,605.4,525.5z"/>
<linearGradient id="SVGID_3_" gradientUnits="userSpaceOnUse" x1="264.6" y1="324.95" x2="751.9" y2="324.95">
	<stop  offset="0" style="stop-color:#C8C8C8"/>
	<stop  offset="1" style="stop-color:#787878"/>
</linearGradient>
<path class="st7" d="M275.6,175.4h465.3c6.1,0,11,4.9,11,11v277.1c0,6.1-4.9,11-11,11H275.6c-6.1,0-11-4.9-11-11V186.4
	C264.6,180.4,269.5,175.4,275.6,175.4z"/>
<path class="st6" d="M282.9,194.8h450.6c5.1,0,9.3,4.2,9.3,9.3v221.2c0,5.1-4.2,9.3-9.3,9.3H282.9c-5.1,0-9.3-4.2-9.3-9.3V204.1
	C273.6,198.9,277.8,194.8,282.9,194.8z"/>
<path class="st8" d="M286.8,198.9h442.8c5,0,9,4,9,9v213.5c0,5-4,9-9,9H286.8c-5,0-9-4-9-9V207.9
	C277.8,202.9,281.8,198.9,286.8,198.9z"/>
<ellipse transform="matrix(0.9596 -0.2814 0.2814 0.9596 -107.3308 161.3699)" class="st9" cx="508.2" cy="454.4" rx="11.2" ry="11.2"/>
<path class="st4" d="M515.8,454.4c0,4.2-3.4,7.6-7.6,7.6c-4.2,0-7.6-3.4-7.6-7.6s3.4-7.6,7.6-7.6l0,0
	C512.4,446.8,515.8,450.2,515.8,454.4z"/>
<path class="st10" d="M294.8,208.8h426.8c2.9,0,5.3,2.4,5.3,5.3v202.3c0,2.9-2.4,5.3-5.3,5.3H294.8c-2.9,0-5.3-2.4-5.3-5.3V214.1
	C289.6,211.2,291.9,208.8,294.8,208.8z"/>
<g class="st11">
	<line class="st12" x1="271.4" y1="643.9" x2="315.8" y2="439.5"/>
	<line class="st12" x1="358.2" y1="640.5" x2="401.9" y2="442.1"/>
	<line class="st12" x1="273.9" y1="632.2" x2="360" y2="632.2"/>
	<line class="st12" x1="278.9" y1="609.4" x2="365" y2="609.4"/>
	<line class="st12" x1="283.8" y1="586.6" x2="369.9" y2="586.6"/>
	<line class="st12" x1="288.8" y1="563.8" x2="374.9" y2="563.8"/>
	<line class="st12" x1="293.7" y1="541" x2="379.8" y2="541"/>
	<line class="st12" x1="298.7" y1="518.2" x2="384.8" y2="518.2"/>
	<line class="st12" x1="303.7" y1="495.4" x2="389.7" y2="495.4"/>
	<line class="st12" x1="308.6" y1="472.6" x2="394.7" y2="472.6"/>
</g>
<ellipse class="st13" cx="269" cy="644.7" rx="12.5" ry="2.1"/>
<ellipse class="st13" cx="355" cy="644.7" rx="12.5" ry="2.1"/>
<line class="st14" x1="269" y1="642" x2="313.4" y2="437.5"/>
<line class="st14" x1="355" y1="642" x2="399.5" y2="440.2"/>
<line class="st14" x1="271.5" y1="630.3" x2="357.6" y2="630.3"/>
<line class="st14" x1="276.5" y1="607.5" x2="362.5" y2="607.5"/>
<line class="st14" x1="281.4" y1="584.7" x2="367.5" y2="584.7"/>
<line class="st14" x1="286.4" y1="561.8" x2="372.5" y2="561.8"/>
<line class="st14" x1="291.3" y1="539" x2="377.4" y2="539"/>
<line class="st14" x1="296.3" y1="516.2" x2="382.4" y2="516.2"/>
<line class="st14" x1="301.2" y1="493.4" x2="387.3" y2="493.4"/>
<line class="st14" x1="306.2" y1="470.6" x2="392.3" y2="470.6"/>
<path class="st15" d="M294.8,208.8h426.9c2.9,0,5.2,2.4,5.2,5.2l0,0v14l0,0H289.6l0,0v-13.9C289.6,211.2,291.9,208.8,294.8,208.8
	L294.8,208.8z"/>
<circle class="st16" cx="303" cy="218.4" r="3.5"/>
<circle class="st17" cx="316.6" cy="218.4" r="3.5"/>
<circle class="st18" cx="330.2" cy="218.4" r="3.5"/>
<polygon class="st19" points="706.1,362.2 669.2,362.2 668.2,243.4 705.9,243.4 "/>
<polygon class="st19" points="663.8,398.5 626.8,398.5 625.8,243.4 663.6,243.4 "/>
<polygon class="st19" points="620.9,398.5 583.9,398.5 582.9,243.4 620.6,243.4 "/>
<path class="st13" d="M715,362.8h-3.8v-0.2c0-1.3-1.1-2.4-2.3-2.4h-38.3c-1.3,0-2.4,1.1-2.4,2.4v2.7c0,1.3,1.1,2.4,2.4,2.4h38.2
	c1.3,0,2.3-1.1,2.3-2.4V365h2.7v6.6h-14.2c-0.6,0-1.1,0.5-1.1,1.1v8.5c-1.4,0.5-2.4,1.8-2.4,3.3v20.7c0,1.9,1.6,3.5,3.5,3.5
	s3.5-1.6,3.5-3.5v-20.7c0-1.5-1-2.8-2.4-3.3v-7.4H715c0.6,0,1.1-0.5,1.1-1.1v-8.9C716.1,363.3,715.6,362.8,715,362.8z"/>
<path class="st20" d="M697.7,392.4L697.7,392.4c-0.6,0-1.1-0.5-1.1-1.1v-16.5c0-0.6,0.5-1.1,1.1-1.1l0,0c0.6,0,1.1,0.5,1.1,1.1v16.5
	C698.8,391.9,698.3,392.4,697.7,392.4z"/>
<path class="st20" d="M696.6,374.8L696.6,374.8c0-0.6,0.5-1.1,1.1-1.1H713c0.6,0,1.1,0.5,1.1,1.1l0,0c0,0.6-0.5,1.1-1.1,1.1h-15.3
	C697.1,375.9,696.6,375.4,696.6,374.8z"/>
<path class="st20" d="M713,364.8L713,364.8c0.6,0,1.1,0.5,1.1,1.1v8.9c0,0.6-0.5,1.1-1.1,1.1l0,0c-0.6,0-1.1-0.5-1.1-1.1v-8.9
	C711.9,365.3,712.4,364.8,713,364.8z"/>
<path class="st20" d="M714.1,365.9L714.1,365.9c0,0.6-0.5,1.1-1.1,1.1h-10.8c-0.6,0-1.1-0.5-1.1-1.1l0,0c0-0.6,0.5-1.1,1.1-1.1H713
	C713.6,364.8,714.1,365.3,714.1,365.9z"/>
<path class="st21" d="M668.5,362.2h38.2c1.3,0,2.3,1.1,2.3,2.4v2.7c0,1.3-1.1,2.4-2.3,2.4h-38.2c-1.3,0-2.3-1.1-2.3-2.4v-2.7
	C666.2,363.3,667.3,362.2,668.5,362.2z"/>
<path class="st22" d="M697.7,410.7L697.7,410.7c-1.9,0-3.5-1.6-3.5-3.5v-20.7c0-1.9,1.6-3.5,3.5-3.5l0,0c1.9,0,3.5,1.6,3.5,3.5v20.7
	C701.2,409.1,699.6,410.7,697.7,410.7z"/>
<path class="st23" d="M708.7,403.8c-0.1-0.9-0.7-2-2.5-3c-3.5-1.9-4.1-3-4.4-3.7s-2.1,0.1-0.3,2.4l1.2,1.6L708.7,403.8z"/>
<path class="st23" d="M702.6,401.1l0.5,0.7c0,0-5.8-1.6-8.3-0.7s1.8,5.6,6.2,6.6c5.5,1.2,7.2-0.3,7.6-2.5c0.1-0.4,0.2-0.9,0.1-1.3
	L702.6,401.1z"/>
<path class="st15" d="M310.8,245.7h84c2.7,0,4.9,2.2,4.9,4.9v111.5c0,2.7-2.2,4.9-4.9,4.9h-84c-2.7,0-4.9-2.2-4.9-4.9V250.7
	C305.8,247.9,308,245.7,310.8,245.7z"/>
<path class="st24" d="M430.1,245.7h84c2.7,0,4.9,2.2,4.9,4.9v111.5c0,2.7-2.2,4.9-4.9,4.9h-84c-2.7,0-4.9-2.2-4.9-4.9V250.7
	C425.2,247.9,427.4,245.7,430.1,245.7z"/>
<path class="st25" d="M341.1,315.9h-11.4c-0.3,0-0.6-0.5-0.6-1.2l0,0c0-0.7,0.3-1.2,0.6-1.2h11.4c0.3,0,0.6,0.5,0.6,1.2l0,0
	C341.8,315.4,341.5,315.9,341.1,315.9z"/>
<path class="st26" d="M341.1,345.2h-11.4c-0.3,0-0.6-0.5-0.6-1.2l0,0c0-0.7,0.3-1.2,0.6-1.2h11.4c0.3,0,0.6,0.5,0.6,1.2l0,0
	C341.8,344.7,341.5,345.2,341.1,345.2z"/>
<path class="st25" d="M344.6,325.9h-14.8c-0.3,0-0.6-0.5-0.6-1.2l0,0c0-0.7,0.3-1.2,0.6-1.2h14.8c0.3,0,0.6,0.5,0.6,1.2l0,0
	C345.2,325.4,344.9,325.9,344.6,325.9z"/>
<path class="st25" d="M330,328.3h40.2c0.5,0,0.8,0.4,0.8,0.8v0.8c0,0.5-0.4,0.8-0.8,0.8H330c-0.5,0-0.8-0.4-0.8-0.8v-0.8
	C329.1,328.7,329.5,328.3,330,328.3z"/>
<path class="st25" d="M344.6,349.9h-14.8c-0.3,0-0.6-0.5-0.6-1.2l0,0c0-0.7,0.3-1.2,0.6-1.2h14.8c0.3,0,0.6,0.5,0.6,1.2l0,0
	C345.2,349.3,344.9,349.9,344.6,349.9z"/>
<path class="st25" d="M352.5,349.9h-5.9c-0.3,0-0.6-0.5-0.6-1.2l0,0c0-0.7,0.3-1.2,0.6-1.2h5.9c0.3,0,0.6,0.5,0.6,1.2l0,0
	C353.1,349.3,352.8,349.9,352.5,349.9z"/>
<path class="st27" d="M329.8,352.3h26.4c0.4,0,0.7,0.3,0.7,0.7v1.1c0,0.4-0.3,0.7-0.7,0.7h-26.4c-0.4,0-0.7-0.3-0.7-0.7V353
	C329.1,352.6,329.4,352.3,329.8,352.3z"/>
<path class="st10" d="M326.8,262h-6.2c-0.3,0-0.6-0.5-0.6-1.2l0,0c0-0.7,0.3-1.2,0.6-1.2h6.2c0.3,0,0.6,0.5,0.6,1.2l0,0
	C327.4,261.4,327.1,262,326.8,262z"/>
<path class="st10" d="M365.5,262h-35.8c-0.3,0-0.6-0.5-0.6-1.2l0,0c0-0.7,0.3-1.2,0.6-1.2h35.8c0.3,0,0.6,0.5,0.6,1.2l0,0
	C366.1,261.4,365.8,262,365.5,262z"/>
<path class="st10" d="M341.1,267h-11.4c-0.3,0-0.6-0.5-0.6-1.2l0,0c0-0.7,0.3-1.2,0.6-1.2h11.4c0.3,0,0.6,0.5,0.6,1.2l0,0
	C341.8,266.4,341.5,267,341.1,267z"/>
<path class="st10" d="M359.9,267h-16.5c-0.3,0-0.6-0.5-0.6-1.2l0,0c0-0.7,0.3-1.2,0.6-1.2h16.5c0.3,0,0.6,0.5,0.6,1.2l0,0
	C360.5,266.4,360.2,267,359.9,267z"/>
<path class="st10" d="M365.5,291.3h-35.8c-0.3,0-0.6-0.5-0.6-1.2l0,0c0-0.7,0.3-1.2,0.6-1.2h35.8c0.3,0,0.6,0.5,0.6,1.2l0,0
	C366.1,290.8,365.8,291.3,365.5,291.3z"/>
<path class="st10" d="M326.8,296.3h-6.2c-0.3,0-0.6-0.5-0.6-1.2l0,0c0-0.7,0.3-1.2,0.6-1.2h6.2c0.3,0,0.6,0.5,0.6,1.2l0,0
	C327.4,295.8,327.1,296.3,326.8,296.3z"/>
<path class="st10" d="M341.1,296.3h-11.4c-0.3,0-0.6-0.5-0.6-1.2l0,0c0-0.7,0.3-1.2,0.6-1.2h11.4c0.3,0,0.6,0.5,0.6,1.2l0,0
	C341.8,295.8,341.5,296.3,341.1,296.3z"/>
<path class="st10" d="M359.9,296.3h-16.5c-0.3,0-0.6-0.5-0.6-1.2l0,0c0-0.7,0.3-1.2,0.6-1.2h16.5c0.3,0,0.6,0.5,0.6,1.2l0,0
	C360.5,295.8,360.2,296.3,359.9,296.3z"/>
<path class="st10" d="M374.4,272h-44.6c-0.3,0-0.6-0.5-0.6-1.2l0,0c0-0.7,0.3-1.2,0.6-1.2h44.6c0.3,0,0.6,0.5,0.6,1.2l0,0
	C375,271.4,374.7,272,374.4,272z"/>
<path class="st10" d="M354.6,274.6H365c0.4,0,0.6,0.3,0.6,0.6v1.1c0,0.4-0.3,0.6-0.6,0.6h-10.4c-0.4,0-0.6-0.3-0.6-0.6v-1.1
	C354,274.8,354.3,274.6,354.6,274.6z"/>
<path class="st10" d="M344.6,277h-14.8c-0.3,0-0.6-0.5-0.6-1.2l0,0c0-0.7,0.3-1.2,0.6-1.2h14.8c0.3,0,0.6,0.5,0.6,1.2l0,0
	C345.2,276.4,344.9,277,344.6,277z"/>
<path class="st10" d="M352.5,277h-5.9c-0.3,0-0.6-0.5-0.6-1.2l0,0c0-0.7,0.3-1.2,0.6-1.2h5.9c0.3,0,0.6,0.5,0.6,1.2l0,0
	C353.1,276.4,352.8,277,352.5,277z"/>
<path class="st10" d="M326.8,281.8h-6.2c-0.3,0-0.6-0.5-0.6-1.2l0,0c0-0.7,0.3-1.2,0.6-1.2h6.2c0.3,0,0.6,0.5,0.6,1.2l0,0
	C327.4,281.3,327.1,281.8,326.8,281.8z"/>
<path class="st10" d="M374.4,281.8h-44.6c-0.3,0-0.6-0.5-0.6-1.2l0,0c0-0.7,0.3-1.2,0.6-1.2h44.6c0.3,0,0.6,0.5,0.6,1.2l0,0
	C375,281.3,374.7,281.8,374.4,281.8z"/>
<path class="st10" d="M326.8,300.9h-6.2c-0.3,0-0.6-0.5-0.6-1.2l0,0c0-0.7,0.3-1.2,0.6-1.2h6.2c0.3,0,0.6,0.5,0.6,1.2l0,0
	C327.4,300.4,327.1,300.9,326.8,300.9z"/>
<path class="st10" d="M354.7,298.5h14.6c0.4,0,0.8,0.3,0.8,0.8v0.9c0,0.4-0.3,0.8-0.8,0.8h-14.6c-0.4,0-0.8-0.3-0.8-0.8v-0.9
	C354,298.9,354.3,298.5,354.7,298.5z"/>
<path class="st10" d="M344.6,300.9h-14.8c-0.3,0-0.6-0.5-0.6-1.2l0,0c0-0.7,0.3-1.2,0.6-1.2h14.8c0.3,0,0.6,0.5,0.6,1.2l0,0
	C345.2,300.4,344.9,300.9,344.6,300.9z"/>
<path class="st10" d="M352.5,300.9h-5.9c-0.3,0-0.6-0.5-0.6-1.2l0,0c0-0.7,0.3-1.2,0.6-1.2h5.9c0.3,0,0.6,0.5,0.6,1.2l0,0
	C353.1,300.4,352.8,300.9,352.5,300.9z"/>
<path class="st10" d="M326.8,305.8h-6.2c-0.3,0-0.6-0.5-0.6-1.2l0,0c0-0.7,0.3-1.2,0.6-1.2h6.2c0.3,0,0.6,0.5,0.6,1.2l0,0
	C327.4,305.2,327.1,305.8,326.8,305.8z"/>
<path class="st10" d="M337.5,305.8h-7.7c-0.3,0-0.6-0.5-0.6-1.2l0,0c0-0.7,0.3-1.2,0.6-1.2h7.7c0.3,0,0.6,0.5,0.6,1.2l0,0
	C338.1,305.2,337.8,305.8,337.5,305.8z"/>
<path class="st10" d="M320.5,286.8c-0.3,0-0.6-0.5-0.6-1.2l0,0c0-0.7,0.3-1.2,0.6-1.2h6.2c0.3,0,0.6,0.5,0.6,1.2l0,0
	c0,0.7-0.3,1.2-0.6,1.2"/>
<path class="st10" d="M354.8,284.4h16.6c0.4,0,0.8,0.4,0.8,0.8v0.8c0,0.4-0.4,0.8-0.8,0.8h-16.6c-0.4,0-0.8-0.4-0.8-0.8v-0.8
	C354,284.7,354.3,284.4,354.8,284.4z"/>
<path class="st10" d="M344.6,286.8h-14.8c-0.3,0-0.6-0.5-0.6-1.2l0,0c0-0.7,0.3-1.2,0.6-1.2h14.8c0.3,0,0.6,0.5,0.6,1.2l0,0
	C345.2,286.3,344.9,286.8,344.6,286.8z"/>
<path class="st10" d="M352.5,286.8h-5.9c-0.3,0-0.6-0.5-0.6-1.2l0,0c0-0.7,0.3-1.2,0.6-1.2h5.9c0.3,0,0.6,0.5,0.6,1.2l0,0
	C353.1,286.3,352.8,286.8,352.5,286.8z"/>
<path class="st10" d="M365.5,310.9h-35.8c-0.3,0-0.6-0.5-0.6-1.2l0,0c0-0.7,0.3-1.2,0.6-1.2h35.8c0.3,0,0.6,0.5,0.6,1.2l0,0
	C366.1,310.4,365.8,310.9,365.5,310.9z"/>
<path class="st10" d="M359.9,315.9h-16.5c-0.3,0-0.6-0.5-0.6-1.2l0,0c0-0.7,0.3-1.2,0.6-1.2h16.5c0.3,0,0.6,0.5,0.6,1.2l0,0
	C360.5,315.4,360.2,315.9,359.9,315.9z"/>
<path class="st10" d="M365.5,340.2h-35.8c-0.3,0-0.6-0.5-0.6-1.2l0,0c0-0.7,0.3-1.2,0.6-1.2h35.8c0.3,0,0.6,0.5,0.6,1.2l0,0
	C366.1,339.7,365.8,340.2,365.5,340.2z"/>
<path class="st10" d="M326.8,345.2h-6.2c-0.3,0-0.6-0.5-0.6-1.2l0,0c0-0.7,0.3-1.2,0.6-1.2h6.2c0.3,0,0.6,0.5,0.6,1.2l0,0
	C327.4,344.7,327.1,345.2,326.8,345.2z"/>
<path class="st10" d="M359.9,345.2h-16.5c-0.3,0-0.6-0.5-0.6-1.2l0,0c0-0.7,0.3-1.2,0.6-1.2h16.5c0.3,0,0.6,0.5,0.6,1.2l0,0
	C360.5,344.7,360.2,345.2,359.9,345.2z"/>
<path class="st10" d="M326.8,320.9h-6.2c-0.3,0-0.6-0.5-0.6-1.2l0,0c0-0.7,0.3-1.2,0.6-1.2h6.2c0.3,0,0.6,0.5,0.6,1.2l0,0
	C327.4,320.4,327.1,320.9,326.8,320.9z"/>
<path class="st10" d="M329.9,318.5h31.8c0.4,0,0.7,0.3,0.7,0.7v1c0,0.4-0.3,0.7-0.7,0.7h-31.8c-0.4,0-0.7-0.3-0.7-0.7v-1
	C329.1,318.8,329.5,318.5,329.9,318.5z"/>
<path class="st10" d="M326.8,325.9h-6.2c-0.3,0-0.6-0.5-0.6-1.2l0,0c0-0.7,0.3-1.2,0.6-1.2h6.2c0.3,0,0.6,0.5,0.6,1.2l0,0
	C327.4,325.4,327.1,325.9,326.8,325.9z"/>
<path class="st10" d="M352.5,325.9h-5.9c-0.3,0-0.6-0.5-0.6-1.2l0,0c0-0.7,0.3-1.2,0.6-1.2h5.9c0.3,0,0.6,0.5,0.6,1.2l0,0
	C353.1,325.4,352.8,325.9,352.5,325.9z"/>
<path class="st10" d="M326.8,330.7h-6.2c-0.3,0-0.6-0.5-0.6-1.2l0,0c0-0.7,0.3-1.2,0.6-1.2h6.2c0.3,0,0.6,0.5,0.6,1.2l0,0
	C327.4,330.2,327.1,330.7,326.8,330.7z"/>
<path class="st10" d="M326.8,349.9h-6.2c-0.3,0-0.6-0.5-0.6-1.2l0,0c0-0.7,0.3-1.2,0.6-1.2h6.2c0.3,0,0.6,0.5,0.6,1.2l0,0
	C327.4,349.3,327.1,349.9,326.8,349.9z"/>
<path class="st10" d="M374.3,349.9h-19.7c-0.3,0-0.6-0.5-0.6-1.2l0,0c0-0.7,0.3-1.2,0.6-1.2h19.7c0.3,0,0.6,0.5,0.6,1.2l0,0
	C374.9,349.3,374.7,349.9,374.3,349.9z"/>
<path class="st10" d="M354.8,333.3h17.7c0.5,0,0.8,0.4,0.8,0.8v0.8c0,0.5-0.4,0.8-0.8,0.8h-17.7c-0.5,0-0.8-0.4-0.8-0.8v-0.8
	C354,333.7,354.4,333.3,354.8,333.3z"/>
<path class="st27" d="M344.6,335.7h-14.8c-0.3,0-0.6-0.5-0.6-1.2l0,0c0-0.7,0.3-1.2,0.6-1.2h14.8c0.3,0,0.6,0.5,0.6,1.2l0,0
	C345.2,335.2,344.9,335.7,344.6,335.7z"/>
<path class="st27" d="M352.5,335.7h-5.9c-0.3,0-0.6-0.5-0.6-1.2l0,0c0-0.7,0.3-1.2,0.6-1.2h5.9c0.3,0,0.6,0.5,0.6,1.2l0,0
	C353.1,335.2,352.8,335.7,352.5,335.7z"/>
<circle class="st2" cx="392.1" cy="248.2" r="19.8"/>
<path class="st28" d="M390.7,246.4l-7.9,2.9l7.9,2.9v2.9l-11.2-4.3v-3.1l11.2-4.3V246.4z"/>
<path class="st28" d="M393.2,243.4l11.2,4.3v3.1l-11.2,4.2v-2.9l7.8-2.9l-7.8-2.9V243.4z"/>
<path class="st29" d="M772.2,389c0,0-21.9,15-29.3,15.1s-34.5-1.3-34.5-1.3l0.2,5.7c0,0,38,7.6,42.7,6.6s28.7-8.4,31.9-15.1
	S780.1,387.3,772.2,389z"/>
<polygon class="st30" points="771.8,533 772.6,536.4 777.4,536.7 776.4,532.6 "/>
<polygon class="st30" points="812.7,526.3 814.6,529.2 819.2,527.7 816.8,524.2 "/>
<path class="st31" d="M762.8,444.8c0,0-13.9,45.4,8.2,89.1h6.5c0,0-13.1-49.5,3.3-89.5L762.8,444.8z"/>
<path class="st31" d="M774.9,446.4c0,0,2.2,47.4,37.6,81.2l6.2-2.2c0,0-28.9-42.2-27-85.4L774.9,446.4z"/>
<path class="st29" d="M791.6,445.9c0,0,6.1-40.3,6.1-51.2c0-0.5,0-1,0-1.4c-2.8-7.1-9.8-7-12.6-6.4s-13.7,4.1-13.7,4.5l0,0
	c-3.8,2.7-6.6,6-6.9,6.8c-6.3,14.8-6.9,31.5-1.7,46.7L791.6,445.9z"/>
<path class="st23" d="M767.3,368.9c0,0-4.1,13.6-1.5,17s12.1,0.3,15.8-5.2s4.4-17.8-1.9-18.9S768.8,363.4,767.3,368.9z"/>
<path class="st32" d="M782.5,361.8c0,0-10.9-4.6-16.1,4.9c-0.3,0.6-0.9,1.8-0.3,2.5s1.2,0.4,1.8,0.3c1.7-0.2,4.3-1.6,5.8-0.7
	c0.8,0.6,1.4,1.5,1.7,2.5c0.2,0.5,0.4,1,0.5,1.6c0,0.2,0.1,1.4,0.2,1.4c0.1,0,0.1,0,0.2-0.1c0-0.1,0.1-0.1,0.1-0.2
	c0.2-0.5,0.8-0.8,1.3-0.6c0.2,0.1,0.4,0.2,0.5,0.4c1,1.2-0.9,3.5-1.7,4.4c-1,0.9-1.9,2-2.6,3.1c-0.8,1.4-0.6,2.8-0.6,4.4
	c0,1.3-0.5,2.5-1.3,3.4c-2.5,3.2-3.8,7.1-3.8,11.2c-0.1,4.1,0.3,8.2-0.4,12.2c-0.8,4.6-3.5,8.9-3.8,13.5c-0.3,4.3,4.5,5.1,8.2,4.4
	s6.8-2.7,10.1-4.3c4.1-1.9,8.5-3.1,13-3.5c1.5-0.1,3.5,0.4,4.8,0c0.8-0.2,4-2.7,3.5-3.7c-1.8-3.9-7.5-4.3-6.6-9.8
	c1.4-8.5,6.3-10.6-0.3-19.1c-1.7-2.2-3.7-4.3-4.8-6.8c-1-2.4-1.6-4.9-1.8-7.5c-0.4-3.1-0.7-6.3-2.1-9.2S785,362.9,782.5,361.8z"/>
<path class="st33" d="M767,536.7h10.5l0,0v2.2c0,1.2-1,2.2-2.2,2.2H767c-1.2,0-2.2-1-2.2-2.2l0,0C764.8,537.6,765.8,536.7,767,536.7
	z"/>
<path class="st33" d="M809.5,531.3l9.8-3.7l0,0l0.8,2.1c0.4,1.1-0.1,2.4-1.3,2.9l-7.7,2.9c-1.1,0.4-2.4-0.1-2.9-1.3l0,0
	C807.8,533,808.3,531.8,809.5,531.3z"/>
<path class="st32" d="M338.2,376.9c0,0,33.1,53.6,28.9,90.9l16.9,0.4c0.8,0,1.5-0.6,1.5-1.4c0-0.5-0.3-1-0.7-1.3l-4.8-2.8l2.8-0.5
	c0,0-8.3-57.8-16.1-78.3c-8.2-21.5-10.6-13.5-10.6-13.5L338.2,376.9z"/>
<path class="st32" d="M326.3,373.6c0,0,1.8,37.2-0.9,51.5s-11,42.3-11,42.3l16.4,0.4c0.8,0,1.5-0.6,1.5-1.5c0-0.5-0.2-0.9-0.6-1.2
	l-1.6-1.2l-3.5-2c0,0,15-40.4,16.4-59.7s3.7-30.3,3.7-30.3L326.3,373.6z"/>
<polyline class="st34" points="369.5,263.4 373,261 374.5,255.3 372.8,255 371.8,257.1 372.8,247.2 371.1,247.6 369.3,257.1 
	367.3,261.5 369.2,262.8 "/>
<polygon class="st34" points="389.9,273.7 390.4,269.5 395.4,264.5 396.6,266.1 394.7,268.1 404.4,265.9 404.4,267.9 395.4,271.4 
	393.6,274.6 "/>
<path class="st35" d="M367.1,260c0,0-39.2,47.6-43.8,57.1c0,0-1.9,3.4-1.9,13.3s3.4,46.5,3.4,46.5l40,2.3c0,0-13-44.6-13.3-45.7
	s-6.9-8-13-9.5l33.5-60.6L367.1,260z"/>
<path class="st23" d="M342.3,319.4c0,0,1.7,5,2.6,7.9c0,0-8.2-0.2-11-4l3-7.3L342.3,319.4z"/>
<path class="st23" d="M348.5,303.9c0,0,2.4,14.1,0,17.3s-10.7-2.2-14.1-7.4s-4.1-16.6,1.7-17.6C341.6,295.2,346.9,298.5,348.5,303.9
	z"/>
<path class="st35" d="M344.8,329.9c0,0,31.5-19.8,34-23.8s9.6-34.2,9.6-34.2l6.1,1.5c0,0-3.5,33.7-4.6,37.3s-32,36.5-39.1,36.5
	S341.2,338.1,344.8,329.9z"/>
<path class="st36" d="M346.2,300.8c0.2-0.8,0.3-1.5,0.4-2.3c0-1.4-0.2-2.7-0.5-4.1c0-0.9-0.4-1.8-1-2.4c-0.7-0.5-1.7-0.5-2.4,0.1
	c-0.3,0.3-0.5,0.6-0.7,1c-0.6,0.9-1.5,1.5-2.6,1.7c-1.1,0.3-2.3,0.5-3.5,0.4c-0.8,0-1.6,0.1-2.3,0.3c-1.9,0.5-3.3,2-3.7,3.9
	c-0.2,0.8-0.3,1.6-0.2,2.4c0,0.4,0.1,0.8,0.2,1.2c0.1,0.4,0.4,0.7,0.8,0.9c-0.6,0.6-1,1.4-1.1,2.2c-0.5,2.1,0,4.3,1.3,6.1
	c3,4.1,9.7,7.5,11.4,7.1s0.8-6.9,0.8-6.9s-3.9-0.5-4.1-3s1.8-2.8,2.8-1.8s1.1,3,1.8,2.5s-0.2-5.3-0.2-5.3S345.8,302.8,346.2,300.8z"
	/>
<path class="st37" d="M547.8,344.3h12.3c2.9,0,5.3,2.4,5.3,5.3v12.2c0,2.9-2.4,5.3-5.3,5.3h-12.3c-2.9,0-5.3-2.4-5.3-5.3v-12.2
	C542.5,346.6,544.9,344.3,547.8,344.3z"/>
<path class="st37" d="M547.8,375.7h12.3c2.9,0,5.3,2.4,5.3,5.3v12.2c0,2.9-2.4,5.3-5.3,5.3h-12.3c-2.9,0-5.3-2.4-5.3-5.3V381
	C542.5,378.1,544.9,375.7,547.8,375.7z"/>
<path class="st37" d="M547.8,310.8h12.3c2.9,0,5.3,2.4,5.3,5.3v12.2c0,2.9-2.4,5.3-5.3,5.3h-12.3c-2.9,0-5.3-2.4-5.3-5.3v-12.2
	C542.5,313.2,544.9,310.8,547.8,310.8z"/>
<path class="st24" d="M547.8,277.1h12.3c2.9,0,5.3,2.4,5.3,5.3v12.2c0,2.9-2.4,5.3-5.3,5.3h-12.3c-2.9,0-5.3-2.4-5.3-5.3v-12.2
	C542.5,279.5,544.9,277.1,547.8,277.1z"/>
<path class="st37" d="M547.8,243.7h12.3c2.9,0,5.3,2.4,5.3,5.3v12.2c0,2.9-2.4,5.3-5.3,5.3h-12.3c-2.9,0-5.3-2.4-5.3-5.3V249
	C542.5,246.1,544.9,243.7,547.8,243.7z"/>
<path class="st32" d="M510.4,461.8c0,48,20.2,63.1,20.2,63.1l-5.4,5c-28.1-20.8-32.5-59.5-32.5-59.5c-5.4,26.1,6.4,59.5,6.4,59.5
	h-6.4c-20.3-25.6-13.5-68-13.5-68"/>
<path class="st38" d="M483.9,529.8H499l0,0v3.4c0,1.9-1.5,3.4-3.4,3.4l0,0h-11.7c-1.9,0-3.4-1.5-3.4-3.4l0,0l0,0
	C480.5,531.3,482.1,529.8,483.9,529.8L483.9,529.8z"/>
<path class="st38" d="M518.3,533.6l12.3-8.8l0,0l2,2.8c1.1,1.5,0.7,3.6-0.8,4.7l0,0l-9.6,6.8c-1.5,1.1-3.6,0.7-4.7-0.8l0,0l0,0
	C516.4,536.8,516.8,534.7,518.3,533.6L518.3,533.6L518.3,533.6z"/>
<path class="st23" d="M486.2,379.1c-2.6,4.3-4.9,12.9-1,22.7c2.4,6.2,8.6,7.1,13.4,0.6s4.7-17.5,2.7-22.8S490.3,372.2,486.2,379.1z"
	/>
<path class="st23" d="M490.6,417.8c-0.5,0-0.9-0.1-1.4-0.2c-2.3-0.8-3.6-3.3-2.9-5.6c0.7-2.7,0.8-5.5,0.4-8.3
	c-0.4-2.4,1.2-4.7,3.7-5.1s4.7,1.2,5.1,3.7c0.1,0.7,1.1,7-0.7,12.5C494.3,416.6,492.6,417.8,490.6,417.8z"/>
<path class="st23" d="M515.9,375.6c-0.1-0.1-0.3-0.3-0.4-0.3c-0.8-0.1-1.6,0.2-2.1,0.8c-0.5,0.8-0.7,1.8-0.4,2.7
	c0.5,2.8,1.4,5.5,1.4,8.3c-0.1,2.5-0.4,5-1.1,7.4c-0.7,3.1-1.7,6.1-3,9c-0.2,0.5-0.5,1-0.8,1.5c-0.2,0.4-0.4,0.8-0.7,1.2
	c-0.5,0.6-0.8,1.2-1,1.4c-0.8,0.9-1.4,2-1.6,3.2c0,1.3,0.2,2.6,0.6,3.9c0.3,1.6,1.8,2.7,3.4,2.5c3.9-0.3,4.8-3.8,6-6.8
	c1.1-2.6,2-5.2,3.2-7.8c0.3-0.6,0.5-1.3,0.8-2c0.3-1.3,0.5-2.7,0.4-4.1c-0.1-4.3-0.7-8.7-1.9-12.9c-0.6-2.1-1.3-4.1-2.1-6.2
	C516.4,376.8,516.2,376.2,515.9,375.6z"/>
<path class="st23" d="M463.6,374.3c0,0.2,0,0.5,0,0.7s0,0.3,0,0.5s-0.1,0.4-0.2,0.6c0,0.1-0.1,0.2-0.1,0.3c0,0.1-0.1,0.3-0.1,0.4
	c-0.1,0.4-0.1,0.9-0.1,1.3s-0.1,0.9-0.1,1.4c-0.1,0.9-0.1,1.8-0.2,2.8c-0.2,2.2-0.3,4.4-0.4,6.5c-0.1,1.8-0.6,4.1-0.1,5.8
	c0.9,3.5,2.1,7,3.4,10.4c0.3,0.6,0.6,1.3,1,1.9c0.3,0.6,0.6,1.1,0.9,1.5c0.6,0.9,1.1,1.6,1.4,1.9c1.6,1.9,3.2,2.9,4.6,3
	c1.5,0.1,2.9-0.7,3.5-2.1c1.1-1.8,1.8-3.6,0.7-5.6c-1.2-2.4-3.7-3.6-5.5-5.5s-3.2-4.2-4-6.7c-0.5-1.5-0.8-3-1-4.6
	c-0.2-2.5-0.4-5.1-0.5-7.6c-0.1-2.3,0.1-4.6,0-6.9c-0.9-0.1-1.8-0.2-2.7-0.1C464.1,374.2,463.8,374.2,463.6,374.3L463.6,374.3z"/>
<path class="st39" d="M488.3,410.1c1.2,0.2,7.4,3.2,20.5-11.3c0,0,6.3,7.9,7.2,16.2c0,0-3.5,4.7-8.5,4.5c0,0-1.8,24.3,5.1,42.2
	c-10.8,5.4-23.3,5.9-34.5,1.4c0,0,0.1-17.7-0.3-39.5c0,0-5.8-2-10.1-10.4c0,0,2.9-8.2,7.8-11.1C475.6,402.3,483.7,409.4,488.3,410.1
	z"/>
<path class="st23" d="M484.3,386.8c-0.1-0.7-0.4-1.4-0.8-2c-0.5-0.8-1.9-1.9-2.6-1.2c-0.3,0.3-0.4,0.7-0.5,1.1c-0.2,1-0.1,2,0.3,2.9
	c0.3,0.6,0.6,1.2,1,1.8c0.4,0.8,0.6,1.7,0.7,2.5c0,0.2,0.1,0.5,0.1,0.7c0.1,0.2,0.3,0.4,0.4,0.3s0.3-0.6,0.4-1
	c0.1-1.1,0.6-1.8,0.8-2.8C484.2,388.4,484.3,387.6,484.3,386.8z"/>
<path class="st23" d="M501.1,388c0.1-1.3,1.4-2.3,2-3.2c0.3-0.4,0.6-0.8,1-0.7s0.7,1,0.7,1.6c0,1.1-0.2,2.2-0.5,3.3
	c-0.3,0.9-0.8,1.7-1.1,2.6c-0.1,0.5-0.2,1.1-0.4,1.6c0,0.2-0.1,0.4-0.3,0.4s-0.3-0.2-0.4-0.4c-0.2-0.4-0.5-0.6-0.7-1
	c-0.3-0.6-0.4-1.3-0.4-2C501,389.5,501,388.8,501.1,388z"/>
<path class="st40" d="M482.6,383.2c0.2-1.7,0.8-3.3,1.6-4.8c1.1-1.8,3.5-2.7,5.2-3.2c1.2-0.2,2.4-0.6,3.5-1c0.4-0.1,0.7-0.4,0.9-0.6
	c0.6-0.9,0.1-2.4-0.4-3.4c-0.3-0.4-0.5-1-0.5-1.5c0.1-0.9,1-1.1,1.7-0.9c2.1,0.6,3.9,2.5,5.1,4.9c0.8,1.6,1.3,3.3,1.7,5
	c0.3,1.5,0.9,2.6,1.3,4.1c0.7,3,0.7,6.2,0,9.3c-1.4,5.8-5.3,9.7-9.9,9.5C485.9,400.1,481.3,392.1,482.6,383.2z"/>
<path class="st23" d="M466.5,375.4l1.9-3.8l-0.7-2.9l-2.3-0.8v0.8l-3.7-9.1l-1.4,1.1l3,9.2l0.1,1.6l0.2,2.6c0.1,0.6,0,1.3-0.2,1.9
	c-0.1,0.2-0.2,0.5-0.2,0.7"/>
<polygon class="st23" points="512.7,377.7 511.1,373.9 513.2,367 514.9,367.9 514.3,370.6 521.7,364 522.7,365.8 516.4,373.1 
	516.3,376.8 "/>
<path class="st41" d="M468,351.8l48.2,3.2c3.3,0.2,5.9,3.1,5.6,6.4v0.3c-0.2,3.3-3.1,5.9-6.4,5.6l-48.2-3.2
	c-3.3-0.2-5.9-3.1-5.6-6.4v-0.3C461.8,354.1,464.7,351.6,468,351.8z"/>
<path class="st15" d="M440.1,265.8h64c1,0,1.9,0.8,1.9,1.9l0,0c0,1-0.8,1.9-1.9,1.9h-64c-1,0-1.9-0.8-1.9-1.9l0,0
	C438.2,266.6,439.1,265.8,440.1,265.8z"/>
<path class="st28" d="M439.1,328.4h66.1c0.5,0,0.8,0.4,0.8,0.8l0,0c0,0.5-0.4,0.8-0.8,0.8h-66.1c-0.5,0-0.8-0.4-0.8-0.8l0,0
	C438.2,328.7,438.6,328.4,439.1,328.4z"/>
<path class="st15" d="M454,273.9h36.2c1,0,1.9,0.8,1.9,1.9l0,0c0,1-0.8,1.9-1.9,1.9H454c-1,0-1.9-0.8-1.9-1.9l0,0
	C452.1,274.7,452.9,273.9,454,273.9z"/>
<path class="st10" d="M438.7,289.7h67.2c0.2,0,0.4,0.2,0.4,0.4v9.1c0,0.2-0.2,0.4-0.4,0.4h-67.2c-0.2,0-0.4-0.2-0.4-0.4v-9.1
	C438.2,289.9,438.4,289.7,438.7,289.7z"/>
<path class="st10" d="M438.7,307h67.2c0.2,0,0.4,0.2,0.4,0.4v9.1c0,0.2-0.2,0.4-0.4,0.4h-67.2c-0.2,0-0.4-0.2-0.4-0.4v-9.1
	C438.2,307.2,438.4,307,438.7,307z"/>
</svg>
