<?xml version="1.0" encoding="utf-8"?>
<!-- Generator: Adobe Illustrator 22.1.0, SVG Export Plug-In . SVG Version: 6.00 Build 0)  -->
<svg version="1.1" id="Capa_1" xmlns="http://www.w3.org/2000/svg" xmlns:xlink="http://www.w3.org/1999/xlink" x="0px" y="0px"
	 viewBox="0 0 225 46" style="enable-background:new 0 0 225 46;" xml:space="preserve">
<style type="text/css">
	.st0{fill:#FFFFFF;}
</style>
<g>
	<path class="st0" d="M54.5,4.2v23.1c0,3.3,0.9,4.3,4.3,3.8l0.2,3.5c-6.1,1-8.9-0.6-8.9-7.2V4.2H54.5z"/>
	<path class="st0" d="M80,25.3H65.3c0,3.6,2.9,5.8,6.5,5.8c2.5,0.1,4.9-0.2,7.2-1.2l0.6,3.4c-2.3,1-5,1.7-7.5,1.7
		c-6.6,0.1-11.4-4.1-11.2-10.8c0.1-6.7,4.9-10,10.3-10C78.2,14.1,81.4,18.7,80,25.3z M65.4,22.2h11c0.1-3-2.4-4.6-5.2-4.6
		C68.2,17.6,66,19,65.4,22.2z"/>
	<path class="st0" d="M103.2,28.5c0,1.8,0,3,2.2,2.8v3.1c-2.9,0.5-5.8,0.2-5.8-3.1v-0.7c-1.1,2.8-3.9,4.3-6.9,4.3
		c-6.1,0-9-4.9-9-10.5C83.8,17.6,88.5,14,95,14.1c2.9,0,5.6,0.7,8.2,1.9V28.5z M98.9,18.6c-1.4-0.6-2.9-0.8-4.2-0.8
		c-3.8,0-6.4,2.2-6.5,6.5c0,3.6,1.8,6.5,5.5,6.5c3.4,0,5.1-2.6,5.2-6.3V18.6z"/>
	<path class="st0" d="M144.7,29.7v-7.1c0.1-5-2.5-8.5-7.9-8.5c-2.8,0-5.4,1.2-6.6,3.7c0-3-2.8-3.2-5.3-3.2c-1.1,0-8.9,0-8.9,0V12
		c0-5,3.9-5.4,7.5-3.9l0.5-3.1c-6.3-2.1-12.3-0.9-12.3,7v2.7h-3.8V18h3.7v16.5h4.4V18c0,0,6.5,0,8.1,0c2,0,1.9,0.5,1.9,3.2v13.3h4.5
		V22.9c0-3.2,2.2-5.2,5.1-5.2c2.7,0,4.8,1.9,4.8,5.1v7.1c0,4.8,3,5.3,6.8,4.5v-2.9C145.1,31.8,144.7,31.2,144.7,29.7z"/>
	<path class="st0" d="M160,34.9c-5.3,0-10.5-3.5-10.5-10.4c0-7,5.4-10.4,10.7-10.4c5.5,0,10.4,3.5,10.4,10.4
		C170.6,31.4,165.3,34.9,160,34.9z M160.1,30.9c3,0,6-2.2,6-6.5c0-4.2-2.9-6.4-5.9-6.4c-3.1,0-6.2,2.1-6.2,6.4
		C154,28.7,157.1,30.9,160.1,30.9z"/>
	<path class="st0" d="M177.6,5.7c1.4,0,2.7,0.9,2.7,2.6c0,1.8-1.3,2.7-2.6,2.7c-1.4,0-2.8-0.9-2.8-2.7
		C174.9,6.6,176.2,5.7,177.6,5.7z M179.8,34.5h-4.5V14.8h4.5V34.5z"/>
	<path class="st0" d="M188.8,28.6c0.1,2.1,2.4,3,4.6,3c2.2,0,4.6-0.6,4.8-3.1c0-1.8-1.9-2.4-4.5-2.7c-4.1-0.5-8.7-1-8.8-5.5
		c0-4.3,4.1-6.3,8.5-6.3c4.6,0,8.6,2,8.5,6h-4c0-2-2.4-2.6-4.5-2.6c-2.1,0-4.2,1-4.1,2.8c0,1.7,1.7,2,4.8,2.4c4.2,0.5,8.2,1.2,8.2,6
		c0,4.4-4.3,6.3-8.7,6.3c-4.4,0-8.8-1.4-9.1-6.4H188.8z"/>
	<path class="st0" d="M224.7,25.3H210c0,3.6,2.9,5.8,6.5,5.8c2.5,0.1,4.9-0.2,7.2-1.2l0.6,3.4c-2.3,1-5,1.7-7.5,1.7
		c-6.6,0.1-11.4-4.1-11.2-10.8c0.1-6.7,4.9-10,10.3-10C222.9,14.1,226,18.7,224.7,25.3z M210.1,22.2h11c0.1-3-2.4-4.6-5.2-4.6
		C212.9,17.6,210.7,19,210.1,22.2z"/>
</g>
<path class="st0" d="M24.1,39.6l1.6,2.6c-7.9,4.3-17.9,1.8-22.8-5.9c-2.2-3.4-2.5-9.8-2.1-15.9h9c1.3,0,2.5,0.6,3.2,1.7L22,36.4h-6
	c-1.1,0-2.2-0.6-2.8-1.5l-0.8-1.2c0.5-0.6,0.8-1.4,0.8-2.3c0-2-1.7-3.7-3.7-3.7c-2.1,0-3.8,1.8-3.7,3.9c0.1,1.9,1.6,3.4,3.5,3.5
	c0.4,0,0.7,0,1-0.1l0.8,1.2c1.1,1.7,2.9,2.7,4.9,2.7h6.7C23.3,38.9,23.8,39.1,24.1,39.6z M15,20.7l2.5,4l1.9-4
	c-0.7-0.7-1.1-1.6-1.1-2.7c0-2,1.6-3.5,3.6-3.6c2.1-0.1,3.9,1.6,3.9,3.7c0,2-1.7,3.7-3.7,3.7c-0.1,0-0.3,0-0.4,0l-2.2,4.6
	c-0.2,0.5-0.2,1.1,0.1,1.5l4,6.3l8.2-17.1C26,9.4,3,4.2,3,4.2s-1.4,6.4-2,13.7h8.8C11.9,17.8,13.8,18.9,15,20.7z M40.3,42.7
	c-0.7-1.1-2-1.6-3.3-1.2c-1.1,0.3-2.2,0.4-3.3,0.2c-1.6-0.3-3-1.2-4-2.5c5.1-5,6.5-12.8,3.5-19.4l-7.7,16.1
	c-0.2,0.5-0.2,1.1,0.1,1.5c0,0,2.2,3.4,2.2,3.4c1.3,1.7,3.2,2.9,5.5,3.3c0.6,0.1,1.1,0.1,1.7,0.1C36.8,44.2,38.7,43.7,40.3,42.7
	L40.3,42.7z M7.9,31.3c0,0.9,0.7,1.6,1.6,1.6c0.9,0,1.6-0.7,1.6-1.6c0-0.9-0.7-1.6-1.6-1.6C8.6,29.7,7.9,30.4,7.9,31.3z M23.7,18.1
	c0-0.9-0.7-1.6-1.6-1.6c-0.9,0-1.6,0.7-1.6,1.6s0.7,1.6,1.6,1.6C23,19.8,23.7,19,23.7,18.1z"/>
</svg>
