<?xml version="1.0" encoding="utf-8"?>
<!-- Generator: Adobe Illustrator 21.0.0, SVG Export Plug-In . SVG Version: 6.00 Build 0)  -->
<svg version="1.1" id="Слой_1" xmlns="http://www.w3.org/2000/svg" xmlns:xlink="http://www.w3.org/1999/xlink" x="0px" y="0px"
	 viewBox="0 0 664.4 500" style="enable-background:new 0 0 664.4 500;" xml:space="preserve">
<style type="text/css">
	.st0{opacity:0.36;}
	.st1{fill:#91F64A;}
	.st2{fill:url(#SVGID_1_);}
	.st3{fill:url(#SVGID_2_);}
	.st4{fill:#83C66D;}
	.st5{fill:url(#SVGID_3_);}
	.st6{fill:url(#SVGID_4_);}
	.st7{fill:url(#SVGID_5_);}
	.st8{fill:url(#SVGID_6_);}
	.st9{fill:url(#SVGID_7_);}
	.st10{fill:url(#SVGID_8_);}
	.st11{fill:url(#SVGID_9_);}
	.st12{fill:url(#SVGID_10_);}
	.st13{fill:url(#SVGID_11_);}
	.st14{fill:url(#SVGID_12_);}
	.st15{fill:url(#SVGID_13_);}
	.st16{fill:url(#SVGID_14_);}
	.st17{fill:url(#SVGID_15_);}
	.st18{fill:url(#SVGID_16_);}
	.st19{fill:url(#SVGID_17_);}
	.st20{fill:url(#SVGID_18_);}
	.st21{fill:url(#SVGID_19_);}
	.st22{fill:url(#SVGID_20_);}
	.st23{fill:url(#SVGID_21_);}
	.st24{fill:url(#SVGID_22_);}
	.st25{fill:url(#SVGID_23_);}
	.st26{fill:url(#SVGID_24_);}
	.st27{fill:url(#SVGID_25_);}
	.st28{fill:url(#SVGID_26_);}
	.st29{fill:url(#SVGID_27_);}
	.st30{fill:url(#SVGID_28_);}
	.st31{fill:url(#SVGID_29_);}
	.st32{fill:url(#SVGID_30_);}
	.st33{fill:url(#SVGID_31_);}
	.st34{fill:url(#SVGID_32_);}
	.st35{fill:url(#SVGID_33_);}
	.st36{fill:url(#SVGID_34_);}
	.st37{fill:url(#SVGID_35_);}
	.st38{fill:url(#SVGID_36_);}
	.st39{fill:url(#SVGID_37_);}
	.st40{fill:url(#SVGID_38_);}
	.st41{fill:url(#SVGID_39_);}
	.st42{fill:url(#SVGID_40_);}
	.st43{fill:url(#SVGID_41_);}
	.st44{fill:url(#SVGID_42_);}
	.st45{fill:url(#SVGID_43_);}
	.st46{fill:url(#SVGID_44_);}
	.st47{fill:url(#SVGID_45_);}
	.st48{fill:url(#SVGID_46_);}
	.st49{fill:url(#SVGID_47_);}
	.st50{fill:url(#SVGID_48_);}
	.st51{fill:url(#SVGID_49_);}
	.st52{fill:url(#SVGID_50_);}
	.st53{fill:url(#SVGID_51_);}
	.st54{opacity:0.33;fill:url(#SVGID_52_);}
	.st55{fill:#C8C8C8;}
	.st56{fill:#54C456;}
	.st57{fill:#FF4533;}
	.st58{opacity:0.76;}
	.st59{fill:#FFFFFF;}
	.st60{fill:#A4E24A;}
	.st61{fill:#0E9F3D;}
</style>
<g>
	<g>
		<g class="st0">
			<path class="st1" d="M427.6,31c-0.1-0.7-0.7-1.3-1.5-1.3h-0.4c-13.5,0-17.8-4.2-17.9-4.2l-0.3-0.4c-0.3-0.3-0.7-0.5-1.1-0.5l0,0
				c-0.4,0-0.8,0.2-1.1,0.5l-0.3,0.4c0,0-4.4,4.2-17.9,4.2h-0.4c-0.7,0-1.4,0.5-1.5,1.3l-0.1,0.4c0,0.2-3,23,19.3,35.1v36.4h-49.8
				c-0.8,0-1.5,0.7-1.5,1.5v53.2c0,0.8,0.7,1.5,1.5,1.5h1c0.8,0,1.5-0.7,1.5-1.5v-50.7h49.8c0.8,0,1.5-0.7,1.5-1.5V66.6
				c22.4-12.2,19.3-35,19.3-35.2L427.6,31z M406.4,47.8c-0.6,0-1-0.5-1-1s0.5-1,1-1s1,0.5,1,1S407,47.8,406.4,47.8z M408.4,51.3
				c1.8-0.8,3-2.5,3-4.6c0-2.8-2.2-5-5-5s-5,2.2-5,5c0,2.1,1.2,3.8,3,4.6V62c-14.7-9.1-15.7-23.2-15.5-28.3
				c10-0.3,15.1-2.7,17.5-4.3c2.3,1.6,7.5,4,17.5,4.3c0.2,5.1-0.8,19.2-15.5,28.3V51.3z"/>
			<path class="st1" d="M154.8,189.2h-37.9v-43.3H142c0.4,0,0.9-0.2,1.1-0.5c0.3-0.3,0.4-0.8,0.3-1.2l-0.1-0.5
				c-1.2-7.6-7.6-13.1-15.3-13.1c-1.2,0-2.4,0.1-3.5,0.4c-3.9-4.8-9.8-7.6-16-7.6c-7.3,0-14,3.8-17.7,10.1c-0.5-0.1-1-0.1-1.5-0.1
				c-6.1,0-11.3,4.3-12.5,10.3l-0.1,0.6c-0.1,0.4,0,0.9,0.3,1.2s0.7,0.5,1.2,0.5h34.7v45.7c0,0.8,0.7,1.5,1.5,1.5h40.3
				c0.8,0,1.5-0.7,1.5-1.5v-1C156.3,189.9,155.6,189.2,154.8,189.2z M89.4,137.3c0.7,0,1.4,0.1,2.1,0.3l0.4,0.1
				c0.7,0.2,1.4-0.2,1.7-0.8l0.2-0.3c2.9-5.7,8.6-9.2,14.9-9.2c5.4,0,10.5,2.7,13.7,7.1l0.2,0.3c0.4,0.5,1.1,0.8,1.7,0.6l0.3-0.1
				c1.2-0.4,2.4-0.6,3.6-0.6c4.8,0,9.1,3,10.8,7.5h-22v-0.4c1.8-0.8,3-2.5,3-4.6c0-2.8-2.2-5-5-5s-5,2.2-5,5c0,2.1,1.2,3.8,3,4.6
				v0.4H81.6C83.1,139.1,86.1,137.3,89.4,137.3z M115,138.1c-0.6,0-1-0.5-1-1s0.5-1,1-1c0.6,0,1,0.5,1,1S115.5,138.1,115,138.1z"/>
			<path class="st1" d="M516.7,153.1h25.5c0.8,0,1.5-0.7,1.5-1.5v-25.5c0-0.8-0.7-1.5-1.5-1.5h-25.5c-0.8,0-1.5,0.7-1.5,1.5v25.5
				C515.2,152.4,515.8,153.1,516.7,153.1z M539.9,128.4v20.8h-20.8v-20.8H539.9z"/>
			<path class="st1" d="M605.8,127.6h-58.4c-0.8,0-1.5,0.7-1.5,1.5v6.2c0,0.8,0.7,1.5,1.5,1.5h58.4c0.8,0,1.5-0.7,1.5-1.5v-6.2
				C607.3,128.3,606.6,127.6,605.8,127.6z M549.7,133v-1.5h53.7v1.5H549.7z"/>
			<path class="st1" d="M605.8,156.7h-89.1c-0.8,0-1.5,0.7-1.5,1.5v6.2c0,0.8,0.7,1.5,1.5,1.5h89.1c0.8,0,1.5-0.7,1.5-1.5v-6.2
				C607.3,157.3,606.6,156.7,605.8,156.7z M519,162.1v-1.5h84.4v1.5H519z"/>
			<path class="st1" d="M547.3,148.8h39.6c0.8,0,1.5-0.7,1.5-1.5v-6.2c0-0.8-0.7-1.5-1.5-1.5h-39.6c-0.8,0-1.5,0.7-1.5,1.5v6.2
				C545.8,148.1,546.5,148.8,547.3,148.8z M584.5,143.4v1.5h-34.8v-1.5H584.5z"/>
			<path class="st1" d="M615.9,110.9H506.5c-0.8,0-1.5,0.7-1.5,1.5v77.5c0,0.8,0.7,1.5,1.5,1.5h42.4v23h-51c-0.8,0-1.5,0.7-1.5,1.5
				v1c0,0.8,0.7,1.5,1.5,1.5h53.4c0.8,0,1.5-0.7,1.5-1.5v-25.4h63c0.8,0,1.5-0.7,1.5-1.5v-77.5C617.4,111.6,616.7,110.9,615.9,110.9
				z M550.9,178.1c-0.6,0-1-0.5-1-1s0.5-1,1-1c0.6,0,1,0.5,1,1S551.5,178.1,550.9,178.1z M552.9,181.7c1.8-0.8,3-2.5,3-4.6
				c0-2.8-2.2-5-5-5s-5,2.2-5,5c0,2.1,1.2,3.8,3,4.6v5.9h-40v-72.8h104.7v72.8h-60.7V181.7z"/>
			<path class="st1" d="M438,68.1h-1c-0.8,0-1.5,0.7-1.5,1.5v5.7h-5.7c-0.8,0-1.5,0.7-1.5,1.5v1c0,0.8,0.7,1.5,1.5,1.5h8.2
				c0.8,0,1.5-0.7,1.5-1.5v-8.2C439.5,68.7,438.8,68.1,438,68.1z"/>
			<path class="st1" d="M374.7,79.2h8.2c0.8,0,1.5-0.7,1.5-1.5v-1c0-0.8-0.7-1.5-1.5-1.5h-5.7v-5.7c0-0.8-0.7-1.5-1.5-1.5h-1
				c-0.8,0-1.5,0.7-1.5,1.5v8.2C373.2,78.6,373.9,79.2,374.7,79.2z"/>
			<path class="st1" d="M374.8,24.2h1c0.8,0,1.5-0.7,1.5-1.5V17h5.7c0.8,0,1.5-0.7,1.5-1.5v-1c0-0.8-0.7-1.5-1.5-1.5h-8.2
				c-0.8,0-1.5,0.7-1.5,1.5v8.2C373.3,23.5,373.9,24.2,374.8,24.2z"/>
			<path class="st1" d="M438,13h-8.2c-0.8,0-1.5,0.7-1.5,1.5v1c0,0.8,0.7,1.5,1.5,1.5h5.7v5.7c0,0.8,0.7,1.5,1.5,1.5h1
				c0.8,0,1.5-0.7,1.5-1.5v-8.2C439.5,13.7,438.8,13,438,13z"/>
			<path class="st1" d="M438,33.4h-1c-0.8,0-1.5,0.7-1.5,1.5v22.4c0,0.8,0.7,1.5,1.5,1.5h1c0.8,0,1.5-0.7,1.5-1.5V34.9
				C439.5,34.1,438.8,33.4,438,33.4z"/>
			<path class="st1" d="M374.7,58.8h1c0.8,0,1.5-0.7,1.5-1.5V34.9c0-0.8-0.7-1.5-1.5-1.5h-1c-0.8,0-1.5,0.7-1.5,1.5v22.4
				C373.2,58.2,373.9,58.8,374.7,58.8z"/>
			<path class="st1" d="M144.2,44.8h24c0.8,0,1.5-0.7,1.5-1.5v-24c0-0.8-0.7-1.5-1.5-1.5h-24c-0.8,0-1.5,0.7-1.5,1.5v24
				C142.7,44.1,143.3,44.8,144.2,44.8z M165.7,21.7v19.1h-19.1V21.7H165.7z"/>
			<path class="st1" d="M150.6,33.4h3.6V37c0,0.8,0.7,1.5,1.5,1.5h1c0.8,0,1.5-0.7,1.5-1.5v-3.6h3.6c0.8,0,1.5-0.7,1.5-1.5v-1
				c0-0.8-0.7-1.5-1.5-1.5h-3.6v-3.6c0-0.8-0.7-1.5-1.5-1.5h-1c-0.8,0-1.5,0.7-1.5,1.5v3.6h-3.6c-0.8,0-1.5,0.7-1.5,1.5v1
				C149.1,32.7,149.7,33.4,150.6,33.4z"/>
			<path class="st1" d="M500.2,73.8h34.4c0.8,0,1.5-0.7,1.5-1.5V47.8c0-0.8-0.7-1.5-1.5-1.5h-34.4c-0.8,0-1.5,0.7-1.5,1.5v24.5
				C498.7,73.1,499.4,73.8,500.2,73.8z M513.4,61.3l3,2.5c0.3,0.2,0.6,0.3,1,0.3s0.7-0.1,1-0.3l3-2.5l8.1,8.6h-24.2L513.4,61.3z
				 M524.4,58.8l7.7-6.3v14.4L524.4,58.8z M517.4,59.4l-11.2-9.2h22.4L517.4,59.4z M510.3,58.8l-7.7,8.1V52.4L510.3,58.8z"/>
			<path class="st1" d="M231.2,84.5c-0.5-3.2-2.3-5.9-4.9-7.8c-5.4-3.8-12.9-2.6-16.7,2.8s-2.6,12.9,2.8,16.7c2,1.5,4.4,2.2,6.9,2.2
				c3.9,0,7.6-1.9,9.8-5C231,90.9,231.7,87.7,231.2,84.5z M214.5,93.3c-1.8-1.3-3-3.2-3.4-5.4c-0.4-2.2,0.1-4.4,1.4-6.2
				c1.6-2.2,4.1-3.5,6.8-3.5c1.7,0,3.4,0.5,4.8,1.5c1.8,1.3,3,3.2,3.4,5.4c0.4,2.2-0.1,4.4-1.4,6.2c-1.3,1.8-3.2,3-5.4,3.4
				C218.5,95.1,216.3,94.6,214.5,93.3z"/>
			<path class="st1" d="M241.7,76.8l-3.4-0.1c-0.5-1.1-1.2-2.1-1.9-3l1.4-3.1c0.2-0.4,0.1-0.9-0.3-1.2l-7.9-5.6
				c-0.4-0.3-0.9-0.2-1.3,0.1l-2.5,2.3c-1.1-0.4-2.3-0.6-3.5-0.8l-1.2-3.2c-0.2-0.4-0.6-0.7-1.1-0.6l-9.5,1.6
				c-0.5,0.1-0.8,0.5-0.8,1l-0.1,3.4c-1.1,0.5-2.1,1.2-3,1.9l-3.1-1.4c-0.4-0.2-0.9-0.1-1.2,0.3l-5.6,7.9c-0.3,0.4-0.2,0.9,0.1,1.3
				l2.3,2.5c-0.4,1.1-0.6,2.3-0.8,3.5l-3.2,1.2c-0.4,0.2-0.7,0.6-0.6,1.1l1.6,9.5c0.1,0.5,0.5,0.8,1,0.8l3.4,0.1
				c0.5,1.1,1.2,2.1,1.9,3l-1.4,3.1c-0.2,0.4-0.1,0.9,0.3,1.2l7.9,5.6c0.4,0.3,0.9,0.2,1.3-0.1l2.5-2.3c1.1,0.4,2.3,0.6,3.5,0.8
				l1.2,3.2c0.2,0.4,0.5,0.6,0.9,0.6c0.1,0,0.1,0,0.2,0l9.5-1.6c0.5-0.1,0.8-0.5,0.8-1l0.1-3.4c1.1-0.5,2.1-1.2,3-1.9l3.1,1.4
				c0.4,0.2,0.9,0.1,1.2-0.3l5.6-7.9c0.3-0.4,0.2-0.9-0.1-1.3l-2.3-2.5c0.4-1.1,0.6-2.3,0.8-3.5l3.2-1.2c0.4-0.2,0.7-0.6,0.6-1.1
				l-1.6-9.5C242.6,77.2,242.2,76.8,241.7,76.8z M226.1,102.8c-0.3,0.2-0.6,0.5-0.6,0.9l-0.1,2.8l-5.2,0.9l-1-2.6
				c-0.1-0.4-0.5-0.6-0.8-0.6h-0.5c-1.6-0.1-3.2-0.5-4.8-1.1l-0.5-0.2c-0.1,0-0.2-0.1-0.4-0.1s-0.5,0.1-0.7,0.3l-2.1,1.9l-4.3-3
				l1.2-2.6c0.2-0.3,0.1-0.8-0.1-1l-0.3-0.4c-1.1-1.2-1.9-2.6-2.6-4.2l-0.2-0.5c-0.2-0.4-0.5-0.6-0.9-0.6l-2.8-0.1l-0.9-5.2l2.6-1
				c0.4-0.1,0.6-0.5,0.6-0.8v-0.5c0.1-1.6,0.5-3.2,1.1-4.8l0.2-0.5c0.1-0.4,0.1-0.8-0.2-1l-1.9-2.1l3-4.3l2.6,1.2
				c0.4,0.2,0.8,0.1,1.1-0.1l0.4-0.3c1.2-1.1,2.6-1.9,4.2-2.6l0.5-0.2c0.3-0.2,0.6-0.5,0.6-0.9l0.1-2.8l5.2-0.9l1,2.6
				c0.1,0.4,0.5,0.6,0.8,0.6h0.5c1.6,0.1,3.2,0.5,4.8,1.1l0.5,0.2c0.4,0.1,0.8,0.1,1-0.2l2.1-1.9l4.3,3l-1.2,2.6
				c-0.2,0.3-0.1,0.8,0.1,1.1l0.3,0.4c1.1,1.3,1.9,2.6,2.6,4.1l0.2,0.5c0.2,0.4,0.5,0.6,0.9,0.6l2.8,0.1l0.9,5.2l-2.6,1
				c-0.4,0.1-0.6,0.5-0.6,0.8v0.5c-0.1,1.6-0.5,3.2-1.1,4.8l-0.2,0.5c-0.1,0.4-0.1,0.8,0.2,1l1.9,2.1l-3,4.3l-2.6-1.2
				c-0.3-0.2-0.8-0.1-1.1,0.1l-0.4,0.3c-1.2,1.1-2.6,1.9-4.2,2.6L226.1,102.8z"/>
			<path class="st1" d="M53.5,68.2c-0.6,0-1.1,0.5-1.1,1.1v1c0,0.6,0.5,1.1,1.1,1.1c8.7,0,15.7,7,15.7,15.7s-7,15.7-15.7,15.7
				s-15.7-7-15.7-15.7c0-0.6-0.5-1.1-1.1-1.1h-1c-0.6,0-1.1,0.5-1.1,1.1c0,10.4,8.5,18.9,18.9,18.9s18.9-8.5,18.9-18.9
				C72.5,76.7,64,68.2,53.5,68.2z"/>
			<path class="st1" d="M53.5,99.9c0.6,0,1.1-0.5,1.1-1.1v-0.7c0-0.6-0.5-1.1-1.1-1.1c-5.4,0-9.7-4.4-9.7-9.7c0-5.4,4.4-9.7,9.7-9.7
				c5.4,0,9.7,4.4,9.7,9.7c0,0.6,0.5,1.1,1.1,1.1H65c0.6,0,1.1-0.5,1.1-1.1c0-7-5.7-12.7-12.7-12.7s-12.7,5.7-12.7,12.7
				C40.8,94.2,46.5,99.9,53.5,99.9z"/>
			<path class="st1" d="M57.1,83.8l-4.6,4.6L50.1,86c-0.3-0.3-0.8-0.3-1.1,0l-0.3,0.3c-0.1,0.1-0.2,0.3-0.2,0.5s0.1,0.4,0.2,0.5
				l3.3,3.3c0.1,0.1,0.3,0.2,0.5,0.2s0.4-0.1,0.5-0.2l5.5-5.5c0.3-0.3,0.3-0.8,0-1.1l-0.3-0.3C57.8,83.5,57.4,83.5,57.1,83.8z"/>
		</g>
		<g>
			<linearGradient id="SVGID_1_" gradientUnits="userSpaceOnUse" x1="323.8404" y1="120.2905" x2="323.8404" y2="377.4905">
				<stop  offset="0" style="stop-color:#D8DDE5"/>
				<stop  offset="1" style="stop-color:#8B8B88"/>
			</linearGradient>
			<path class="st2" d="M150.3,377.5h347.1v-245c0-6.7-5.4-12.2-12.2-12.2H162.5c-6.7,0-12.2,5.4-12.2,12.2V377.5z"/>
		</g>
		<g>
			
				<linearGradient id="SVGID_2_" gradientUnits="userSpaceOnUse" x1="162.5904" y1="269.3895" x2="484.5904" y2="269.3895" gradientTransform="matrix(1 0 0 -1 0 501.28)">
				<stop  offset="0" style="stop-color:#404B61"/>
				<stop  offset="0.486" style="stop-color:#3C487E"/>
				<stop  offset="1" style="stop-color:#2F3E5C"/>
			</linearGradient>
			<polygon class="st3" points="162.6,330.8 484.6,330.8 484.6,133 162.6,133 			"/>
		</g>
		<g>
			<rect x="151.9" y="295.9" class="st4" width="32.4" height="3.7"/>
		</g>
		<linearGradient id="SVGID_3_" gradientUnits="userSpaceOnUse" x1="323.9404" y1="482.2905" x2="323.9404" y2="340.3905">
			<stop  offset="0" style="stop-color:#D8DDE5"/>
			<stop  offset="1" style="stop-color:#8B8B88"/>
		</linearGradient>
		<polygon class="st5" points="497.4,340.4 323.9,340.4 150.4,340.4 112.5,482.3 325.1,482.3 535.4,482.3 		"/>
		<linearGradient id="SVGID_4_" gradientUnits="userSpaceOnUse" x1="172.9904" y1="365.2905" x2="172.9904" y2="376.9905">
			<stop  offset="0" style="stop-color:#505050"/>
			<stop  offset="0.4725" style="stop-color:#525252"/>
			<stop  offset="0.7305" style="stop-color:#5A5A5A"/>
			<stop  offset="0.9361" style="stop-color:#686868"/>
			<stop  offset="1" style="stop-color:#6E6E6E"/>
		</linearGradient>
		<path class="st6" d="M163.6,365.3h21.3c0.9,0,1.6,0.7,1.4,1.4l-2.1,9.3c-0.1,0.6-0.7,1-1.4,1h-21.7c-0.9,0-1.6-0.7-1.4-1.5
			l2.4-9.3C162.3,365.7,162.9,365.3,163.6,365.3z"/>
		<linearGradient id="SVGID_5_" gradientUnits="userSpaceOnUse" x1="201.4904" y1="365.2905" x2="201.4904" y2="376.9905">
			<stop  offset="0" style="stop-color:#505050"/>
			<stop  offset="0.4725" style="stop-color:#525252"/>
			<stop  offset="0.7305" style="stop-color:#5A5A5A"/>
			<stop  offset="0.9361" style="stop-color:#686868"/>
			<stop  offset="1" style="stop-color:#6E6E6E"/>
		</linearGradient>
		<polygon class="st7" points="194.7,365.3 210.8,365.3 208.6,377 192.2,377 		"/>
		<linearGradient id="SVGID_6_" gradientUnits="userSpaceOnUse" x1="225.9404" y1="365.2905" x2="225.9404" y2="376.9905">
			<stop  offset="0" style="stop-color:#505050"/>
			<stop  offset="0.4725" style="stop-color:#525252"/>
			<stop  offset="0.7305" style="stop-color:#5A5A5A"/>
			<stop  offset="0.9361" style="stop-color:#686868"/>
			<stop  offset="1" style="stop-color:#6E6E6E"/>
		</linearGradient>
		<polygon class="st8" points="218.8,365.3 235,365.3 233.3,377 216.9,377 		"/>
		<linearGradient id="SVGID_7_" gradientUnits="userSpaceOnUse" x1="250.2904" y1="365.2905" x2="250.2904" y2="376.9905">
			<stop  offset="0" style="stop-color:#505050"/>
			<stop  offset="0.4725" style="stop-color:#525252"/>
			<stop  offset="0.7305" style="stop-color:#5A5A5A"/>
			<stop  offset="0.9361" style="stop-color:#686868"/>
			<stop  offset="1" style="stop-color:#6E6E6E"/>
		</linearGradient>
		<polygon class="st9" points="243,365.3 259.1,365.3 257.9,377 241.5,377 		"/>
		<linearGradient id="SVGID_8_" gradientUnits="userSpaceOnUse" x1="274.6904" y1="365.2905" x2="274.6904" y2="376.9905">
			<stop  offset="0" style="stop-color:#505050"/>
			<stop  offset="0.4725" style="stop-color:#525252"/>
			<stop  offset="0.7305" style="stop-color:#5A5A5A"/>
			<stop  offset="0.9361" style="stop-color:#686868"/>
			<stop  offset="1" style="stop-color:#6E6E6E"/>
		</linearGradient>
		<polygon class="st10" points="267.2,365.3 283.3,365.3 282.5,377 266.1,377 		"/>
		<linearGradient id="SVGID_9_" gradientUnits="userSpaceOnUse" x1="299.1404" y1="365.2905" x2="299.1404" y2="376.9905">
			<stop  offset="0" style="stop-color:#505050"/>
			<stop  offset="0.4725" style="stop-color:#525252"/>
			<stop  offset="0.7305" style="stop-color:#5A5A5A"/>
			<stop  offset="0.9361" style="stop-color:#686868"/>
			<stop  offset="1" style="stop-color:#6E6E6E"/>
		</linearGradient>
		<polygon class="st11" points="291.4,365.3 307.5,365.3 307.2,377 290.8,377 		"/>
		<linearGradient id="SVGID_10_" gradientUnits="userSpaceOnUse" x1="474.2404" y1="365.2905" x2="474.2404" y2="376.9905">
			<stop  offset="0" style="stop-color:#505050"/>
			<stop  offset="0.4725" style="stop-color:#525252"/>
			<stop  offset="0.7305" style="stop-color:#5A5A5A"/>
			<stop  offset="0.9361" style="stop-color:#686868"/>
			<stop  offset="1" style="stop-color:#6E6E6E"/>
		</linearGradient>
		<polygon class="st12" points="484.8,365.3 460.6,365.3 463.3,377 487.9,377 		"/>
		<linearGradient id="SVGID_11_" gradientUnits="userSpaceOnUse" x1="445.7404" y1="365.2905" x2="445.7404" y2="376.9905">
			<stop  offset="0" style="stop-color:#505050"/>
			<stop  offset="0.4725" style="stop-color:#525252"/>
			<stop  offset="0.7305" style="stop-color:#5A5A5A"/>
			<stop  offset="0.9361" style="stop-color:#686868"/>
			<stop  offset="1" style="stop-color:#6E6E6E"/>
		</linearGradient>
		<polygon class="st13" points="452.6,365.3 436.5,365.3 438.6,377 455,377 		"/>
		<linearGradient id="SVGID_12_" gradientUnits="userSpaceOnUse" x1="421.3404" y1="365.2905" x2="421.3404" y2="376.9905">
			<stop  offset="0" style="stop-color:#505050"/>
			<stop  offset="0.4725" style="stop-color:#525252"/>
			<stop  offset="0.7305" style="stop-color:#5A5A5A"/>
			<stop  offset="0.9361" style="stop-color:#686868"/>
			<stop  offset="1" style="stop-color:#6E6E6E"/>
		</linearGradient>
		<polygon class="st14" points="428.4,365.3 412.3,365.3 414,377 430.4,377 		"/>
		<linearGradient id="SVGID_13_" gradientUnits="userSpaceOnUse" x1="396.9404" y1="365.2905" x2="396.9404" y2="376.9905">
			<stop  offset="0" style="stop-color:#505050"/>
			<stop  offset="0.4725" style="stop-color:#525252"/>
			<stop  offset="0.7305" style="stop-color:#5A5A5A"/>
			<stop  offset="0.9361" style="stop-color:#686868"/>
			<stop  offset="1" style="stop-color:#6E6E6E"/>
		</linearGradient>
		<polygon class="st15" points="404.2,365.3 388.1,365.3 389.3,377 405.8,377 		"/>
		<linearGradient id="SVGID_14_" gradientUnits="userSpaceOnUse" x1="372.4904" y1="365.2905" x2="372.4904" y2="376.9905">
			<stop  offset="0" style="stop-color:#505050"/>
			<stop  offset="0.4725" style="stop-color:#525252"/>
			<stop  offset="0.7305" style="stop-color:#5A5A5A"/>
			<stop  offset="0.9361" style="stop-color:#686868"/>
			<stop  offset="1" style="stop-color:#6E6E6E"/>
		</linearGradient>
		<polygon class="st16" points="380.1,365.3 363.9,365.3 364.7,377 381.1,377 		"/>
		<linearGradient id="SVGID_15_" gradientUnits="userSpaceOnUse" x1="348.1404" y1="365.2905" x2="348.1404" y2="376.9905">
			<stop  offset="0" style="stop-color:#505050"/>
			<stop  offset="0.4725" style="stop-color:#525252"/>
			<stop  offset="0.7305" style="stop-color:#5A5A5A"/>
			<stop  offset="0.9361" style="stop-color:#686868"/>
			<stop  offset="1" style="stop-color:#6E6E6E"/>
		</linearGradient>
		<polygon class="st17" points="355.9,365.3 339.8,365.3 340.1,377 356.5,377 		"/>
		<linearGradient id="SVGID_16_" gradientUnits="userSpaceOnUse" x1="323.6904" y1="365.2905" x2="323.6904" y2="376.9905">
			<stop  offset="0" style="stop-color:#505050"/>
			<stop  offset="0.4725" style="stop-color:#525252"/>
			<stop  offset="0.7305" style="stop-color:#5A5A5A"/>
			<stop  offset="0.9361" style="stop-color:#686868"/>
			<stop  offset="1" style="stop-color:#6E6E6E"/>
		</linearGradient>
		<polygon class="st18" points="315.5,365.3 331.7,365.3 331.9,377 315.5,377 		"/>
		<linearGradient id="SVGID_17_" gradientUnits="userSpaceOnUse" x1="172.0404" y1="385.6905" x2="172.0404" y2="397.7905">
			<stop  offset="0" style="stop-color:#505050"/>
			<stop  offset="0.4725" style="stop-color:#525252"/>
			<stop  offset="0.7305" style="stop-color:#5A5A5A"/>
			<stop  offset="0.9361" style="stop-color:#686868"/>
			<stop  offset="1" style="stop-color:#6E6E6E"/>
		</linearGradient>
		<polygon class="st19" points="156.5,385.7 190.2,385.7 188.2,397.8 153.9,397.8 		"/>
		<linearGradient id="SVGID_18_" gradientUnits="userSpaceOnUse" x1="470.8404" y1="385.6905" x2="470.8404" y2="397.7905">
			<stop  offset="0" style="stop-color:#505050"/>
			<stop  offset="0.4725" style="stop-color:#525252"/>
			<stop  offset="0.7305" style="stop-color:#5A5A5A"/>
			<stop  offset="0.9361" style="stop-color:#686868"/>
			<stop  offset="1" style="stop-color:#6E6E6E"/>
		</linearGradient>
		<polygon class="st20" points="490.1,385.7 448.5,385.7 450.8,397.8 493.2,397.8 		"/>
		<linearGradient id="SVGID_19_" gradientUnits="userSpaceOnUse" x1="432.8904" y1="385.6905" x2="432.8904" y2="397.7905">
			<stop  offset="0" style="stop-color:#505050"/>
			<stop  offset="0.4725" style="stop-color:#525252"/>
			<stop  offset="0.7305" style="stop-color:#5A5A5A"/>
			<stop  offset="0.9361" style="stop-color:#686868"/>
			<stop  offset="1" style="stop-color:#6E6E6E"/>
		</linearGradient>
		<polygon class="st21" points="440.1,385.7 423.5,385.7 425.4,397.8 442.3,397.8 		"/>
		<linearGradient id="SVGID_20_" gradientUnits="userSpaceOnUse" x1="407.6904" y1="385.6905" x2="407.6904" y2="397.7905">
			<stop  offset="0" style="stop-color:#505050"/>
			<stop  offset="0.4725" style="stop-color:#525252"/>
			<stop  offset="0.7305" style="stop-color:#5A5A5A"/>
			<stop  offset="0.9361" style="stop-color:#686868"/>
			<stop  offset="1" style="stop-color:#6E6E6E"/>
		</linearGradient>
		<polygon class="st22" points="415.1,385.7 398.5,385.7 399.9,397.8 416.9,397.8 		"/>
		<linearGradient id="SVGID_21_" gradientUnits="userSpaceOnUse" x1="382.4404" y1="385.6905" x2="382.4404" y2="397.7905">
			<stop  offset="0" style="stop-color:#505050"/>
			<stop  offset="0.4725" style="stop-color:#525252"/>
			<stop  offset="0.7305" style="stop-color:#5A5A5A"/>
			<stop  offset="0.9361" style="stop-color:#686868"/>
			<stop  offset="1" style="stop-color:#6E6E6E"/>
		</linearGradient>
		<polygon class="st23" points="390.2,385.7 373.5,385.7 374.5,397.8 391.4,397.8 		"/>
		<linearGradient id="SVGID_22_" gradientUnits="userSpaceOnUse" x1="357.2404" y1="385.6905" x2="357.2404" y2="397.7905">
			<stop  offset="0" style="stop-color:#505050"/>
			<stop  offset="0.4725" style="stop-color:#525252"/>
			<stop  offset="0.7305" style="stop-color:#5A5A5A"/>
			<stop  offset="0.9361" style="stop-color:#686868"/>
			<stop  offset="1" style="stop-color:#6E6E6E"/>
		</linearGradient>
		<polygon class="st24" points="365.2,385.7 348.5,385.7 349,397.8 366,397.8 		"/>
		<linearGradient id="SVGID_23_" gradientUnits="userSpaceOnUse" x1="167.0904" y1="407.1905" x2="167.0904" y2="419.1905">
			<stop  offset="0" style="stop-color:#505050"/>
			<stop  offset="0.4725" style="stop-color:#525252"/>
			<stop  offset="0.7305" style="stop-color:#5A5A5A"/>
			<stop  offset="0.9361" style="stop-color:#686868"/>
			<stop  offset="1" style="stop-color:#6E6E6E"/>
		</linearGradient>
		<polygon class="st25" points="151.5,407.2 185.9,407.2 183.4,419.2 148.3,419.2 		"/>
		<linearGradient id="SVGID_24_" gradientUnits="userSpaceOnUse" x1="201.8904" y1="407.1905" x2="201.8904" y2="419.1905">
			<stop  offset="0" style="stop-color:#505050"/>
			<stop  offset="0.4725" style="stop-color:#525252"/>
			<stop  offset="0.7305" style="stop-color:#5A5A5A"/>
			<stop  offset="0.9361" style="stop-color:#686868"/>
			<stop  offset="1" style="stop-color:#6E6E6E"/>
		</linearGradient>
		<polygon class="st26" points="194.5,407.2 211.7,407.2 209.7,419.2 192.1,419.2 		"/>
		<linearGradient id="SVGID_25_" gradientUnits="userSpaceOnUse" x1="284.1404" y1="407.1905" x2="284.1404" y2="419.1905">
			<stop  offset="0" style="stop-color:#505050"/>
			<stop  offset="0.4725" style="stop-color:#525252"/>
			<stop  offset="0.7305" style="stop-color:#5A5A5A"/>
			<stop  offset="0.9361" style="stop-color:#686868"/>
			<stop  offset="1" style="stop-color:#6E6E6E"/>
		</linearGradient>
		<polygon class="st27" points="220.3,407.2 237.5,407.2 349.4,407.2 349.9,419.2 218.4,419.2 		"/>
		<linearGradient id="SVGID_26_" gradientUnits="userSpaceOnUse" x1="367.0904" y1="407.1905" x2="367.0904" y2="419.1905">
			<stop  offset="0" style="stop-color:#505050"/>
			<stop  offset="0.4725" style="stop-color:#525252"/>
			<stop  offset="0.7305" style="stop-color:#5A5A5A"/>
			<stop  offset="0.9361" style="stop-color:#686868"/>
			<stop  offset="1" style="stop-color:#6E6E6E"/>
		</linearGradient>
		<polygon class="st28" points="358,407.2 375.2,407.2 376.2,419.2 358.7,419.2 		"/>
		<linearGradient id="SVGID_27_" gradientUnits="userSpaceOnUse" x1="393.1904" y1="407.1905" x2="393.1904" y2="419.1905">
			<stop  offset="0" style="stop-color:#505050"/>
			<stop  offset="0.4725" style="stop-color:#525252"/>
			<stop  offset="0.7305" style="stop-color:#5A5A5A"/>
			<stop  offset="0.9361" style="stop-color:#686868"/>
			<stop  offset="1" style="stop-color:#6E6E6E"/>
		</linearGradient>
		<polygon class="st29" points="383.9,407.2 401.1,407.2 402.5,419.2 385,419.2 		"/>
		<linearGradient id="SVGID_28_" gradientUnits="userSpaceOnUse" x1="419.2404" y1="407.1905" x2="419.2404" y2="419.1905">
			<stop  offset="0" style="stop-color:#505050"/>
			<stop  offset="0.4725" style="stop-color:#525252"/>
			<stop  offset="0.7305" style="stop-color:#5A5A5A"/>
			<stop  offset="0.9361" style="stop-color:#686868"/>
			<stop  offset="1" style="stop-color:#6E6E6E"/>
		</linearGradient>
		<polygon class="st30" points="409.7,407.2 426.9,407.2 428.8,419.2 411.2,419.2 		"/>
		<linearGradient id="SVGID_29_" gradientUnits="userSpaceOnUse" x1="445.2904" y1="407.1905" x2="445.2904" y2="419.1905">
			<stop  offset="0" style="stop-color:#505050"/>
			<stop  offset="0.4725" style="stop-color:#525252"/>
			<stop  offset="0.7305" style="stop-color:#5A5A5A"/>
			<stop  offset="0.9361" style="stop-color:#686868"/>
			<stop  offset="1" style="stop-color:#6E6E6E"/>
		</linearGradient>
		<polygon class="st31" points="435.5,407.2 452.7,407.2 455.1,419.2 437.5,419.2 		"/>
		<linearGradient id="SVGID_30_" gradientUnits="userSpaceOnUse" x1="480.0904" y1="407.1905" x2="480.0904" y2="419.1905">
			<stop  offset="0" style="stop-color:#505050"/>
			<stop  offset="0.4725" style="stop-color:#525252"/>
			<stop  offset="0.7305" style="stop-color:#5A5A5A"/>
			<stop  offset="0.9361" style="stop-color:#686868"/>
			<stop  offset="1" style="stop-color:#6E6E6E"/>
		</linearGradient>
		<polygon class="st32" points="461.3,407.2 495.8,407.2 498.9,419.2 463.8,419.2 		"/>
		<linearGradient id="SVGID_31_" gradientUnits="userSpaceOnUse" x1="332.1404" y1="385.6905" x2="332.1404" y2="397.7905">
			<stop  offset="0" style="stop-color:#505050"/>
			<stop  offset="0.4725" style="stop-color:#525252"/>
			<stop  offset="0.7305" style="stop-color:#5A5A5A"/>
			<stop  offset="0.9361" style="stop-color:#686868"/>
			<stop  offset="1" style="stop-color:#6E6E6E"/>
		</linearGradient>
		<polygon class="st33" points="340.3,385.7 323.7,385.7 323.7,397.8 340.6,397.8 		"/>
		<linearGradient id="SVGID_32_" gradientUnits="userSpaceOnUse" x1="306.7404" y1="385.6905" x2="306.7404" y2="397.7905">
			<stop  offset="0" style="stop-color:#505050"/>
			<stop  offset="0.4725" style="stop-color:#525252"/>
			<stop  offset="0.7305" style="stop-color:#5A5A5A"/>
			<stop  offset="0.9361" style="stop-color:#686868"/>
			<stop  offset="1" style="stop-color:#6E6E6E"/>
		</linearGradient>
		<polygon class="st34" points="315.3,385.7 298.6,385.7 298.2,397.8 315.1,397.8 		"/>
		<linearGradient id="SVGID_33_" gradientUnits="userSpaceOnUse" x1="281.4904" y1="385.6905" x2="281.4904" y2="397.7905">
			<stop  offset="0" style="stop-color:#505050"/>
			<stop  offset="0.4725" style="stop-color:#525252"/>
			<stop  offset="0.7305" style="stop-color:#5A5A5A"/>
			<stop  offset="0.9361" style="stop-color:#686868"/>
			<stop  offset="1" style="stop-color:#6E6E6E"/>
		</linearGradient>
		<polygon class="st35" points="290.3,385.7 273.6,385.7 272.7,397.8 289.7,397.8 		"/>
		<linearGradient id="SVGID_34_" gradientUnits="userSpaceOnUse" x1="256.2404" y1="385.6905" x2="256.2404" y2="397.7905">
			<stop  offset="0" style="stop-color:#505050"/>
			<stop  offset="0.4725" style="stop-color:#525252"/>
			<stop  offset="0.7305" style="stop-color:#5A5A5A"/>
			<stop  offset="0.9361" style="stop-color:#686868"/>
			<stop  offset="1" style="stop-color:#6E6E6E"/>
		</linearGradient>
		<polygon class="st36" points="265.3,385.7 248.7,385.7 247.2,397.8 264.2,397.8 		"/>
		<linearGradient id="SVGID_35_" gradientUnits="userSpaceOnUse" x1="231.0404" y1="385.6905" x2="231.0404" y2="397.7905">
			<stop  offset="0" style="stop-color:#505050"/>
			<stop  offset="0.4725" style="stop-color:#525252"/>
			<stop  offset="0.7305" style="stop-color:#5A5A5A"/>
			<stop  offset="0.9361" style="stop-color:#686868"/>
			<stop  offset="1" style="stop-color:#6E6E6E"/>
		</linearGradient>
		<polygon class="st37" points="240.3,385.7 223.7,385.7 221.8,397.8 238.8,397.8 		"/>
		<linearGradient id="SVGID_36_" gradientUnits="userSpaceOnUse" x1="205.8404" y1="385.6905" x2="205.8404" y2="397.7905">
			<stop  offset="0" style="stop-color:#505050"/>
			<stop  offset="0.4725" style="stop-color:#525252"/>
			<stop  offset="0.7305" style="stop-color:#5A5A5A"/>
			<stop  offset="0.9361" style="stop-color:#686868"/>
			<stop  offset="1" style="stop-color:#6E6E6E"/>
		</linearGradient>
		<polygon class="st38" points="215.4,385.7 198.7,385.7 196.3,397.8 213.3,397.8 		"/>
		<linearGradient id="SVGID_37_" gradientUnits="userSpaceOnUse" x1="169.6404" y1="347.4905" x2="169.6404" y2="357.9905">
			<stop  offset="0" style="stop-color:#505050"/>
			<stop  offset="0.4725" style="stop-color:#525252"/>
			<stop  offset="0.7305" style="stop-color:#5A5A5A"/>
			<stop  offset="0.9361" style="stop-color:#686868"/>
			<stop  offset="1" style="stop-color:#6E6E6E"/>
		</linearGradient>
		<polygon class="st39" points="164.4,358 167.1,347.5 174.9,347.5 172.4,358 		"/>
		<linearGradient id="SVGID_38_" gradientUnits="userSpaceOnUse" x1="189.3404" y1="347.4905" x2="189.3404" y2="357.9905">
			<stop  offset="0" style="stop-color:#505050"/>
			<stop  offset="0.4725" style="stop-color:#525252"/>
			<stop  offset="0.7305" style="stop-color:#5A5A5A"/>
			<stop  offset="0.9361" style="stop-color:#686868"/>
			<stop  offset="1" style="stop-color:#6E6E6E"/>
		</linearGradient>
		<polygon class="st40" points="182.8,347.5 198.4,347.5 196.2,358 180.3,358 		"/>
		<linearGradient id="SVGID_39_" gradientUnits="userSpaceOnUse" x1="213.0404" y1="347.4905" x2="213.0404" y2="357.9905">
			<stop  offset="0" style="stop-color:#505050"/>
			<stop  offset="0.4725" style="stop-color:#525252"/>
			<stop  offset="0.7305" style="stop-color:#5A5A5A"/>
			<stop  offset="0.9361" style="stop-color:#686868"/>
			<stop  offset="1" style="stop-color:#6E6E6E"/>
		</linearGradient>
		<polygon class="st41" points="206.2,347.5 221.9,347.5 220.1,358 204.2,358 		"/>
		<linearGradient id="SVGID_40_" gradientUnits="userSpaceOnUse" x1="236.7404" y1="347.4905" x2="236.7404" y2="357.9905">
			<stop  offset="0" style="stop-color:#505050"/>
			<stop  offset="0.4725" style="stop-color:#525252"/>
			<stop  offset="0.7305" style="stop-color:#5A5A5A"/>
			<stop  offset="0.9361" style="stop-color:#686868"/>
			<stop  offset="1" style="stop-color:#6E6E6E"/>
		</linearGradient>
		<polygon class="st42" points="229.7,347.5 245.4,347.5 244,358 228.1,358 		"/>
		<linearGradient id="SVGID_41_" gradientUnits="userSpaceOnUse" x1="260.3404" y1="347.4905" x2="260.3404" y2="357.9905">
			<stop  offset="0" style="stop-color:#505050"/>
			<stop  offset="0.4725" style="stop-color:#525252"/>
			<stop  offset="0.7305" style="stop-color:#5A5A5A"/>
			<stop  offset="0.9361" style="stop-color:#686868"/>
			<stop  offset="1" style="stop-color:#6E6E6E"/>
		</linearGradient>
		<polygon class="st43" points="253.2,347.5 268.8,347.5 267.9,358 251.9,358 		"/>
		<linearGradient id="SVGID_42_" gradientUnits="userSpaceOnUse" x1="284.0404" y1="347.4905" x2="284.0404" y2="357.9905">
			<stop  offset="0" style="stop-color:#505050"/>
			<stop  offset="0.4725" style="stop-color:#525252"/>
			<stop  offset="0.7305" style="stop-color:#5A5A5A"/>
			<stop  offset="0.9361" style="stop-color:#686868"/>
			<stop  offset="1" style="stop-color:#6E6E6E"/>
		</linearGradient>
		<polygon class="st44" points="276.7,347.5 292.3,347.5 291.8,358 275.8,358 		"/>
		<linearGradient id="SVGID_43_" gradientUnits="userSpaceOnUse" x1="307.7404" y1="347.4905" x2="307.7404" y2="357.9905">
			<stop  offset="0" style="stop-color:#505050"/>
			<stop  offset="0.4725" style="stop-color:#525252"/>
			<stop  offset="0.7305" style="stop-color:#5A5A5A"/>
			<stop  offset="0.9361" style="stop-color:#686868"/>
			<stop  offset="1" style="stop-color:#6E6E6E"/>
		</linearGradient>
		<polygon class="st45" points="300.1,347.5 315.8,347.5 315.6,358 299.7,358 		"/>
		<linearGradient id="SVGID_44_" gradientUnits="userSpaceOnUse" x1="331.5404" y1="347.4905" x2="331.5404" y2="357.9905">
			<stop  offset="0" style="stop-color:#505050"/>
			<stop  offset="0.4725" style="stop-color:#525252"/>
			<stop  offset="0.7305" style="stop-color:#5A5A5A"/>
			<stop  offset="0.9361" style="stop-color:#686868"/>
			<stop  offset="1" style="stop-color:#6E6E6E"/>
		</linearGradient>
		<polygon class="st46" points="323.6,347.5 339.3,347.5 339.5,358 323.6,358 		"/>
		<linearGradient id="SVGID_45_" gradientUnits="userSpaceOnUse" x1="355.2404" y1="347.4905" x2="355.2404" y2="357.9905">
			<stop  offset="0" style="stop-color:#505050"/>
			<stop  offset="0.4725" style="stop-color:#525252"/>
			<stop  offset="0.7305" style="stop-color:#5A5A5A"/>
			<stop  offset="0.9361" style="stop-color:#686868"/>
			<stop  offset="1" style="stop-color:#6E6E6E"/>
		</linearGradient>
		<polygon class="st47" points="347.1,347.5 362.7,347.5 363.4,358 347.5,358 		"/>
		<linearGradient id="SVGID_46_" gradientUnits="userSpaceOnUse" x1="378.9404" y1="347.4905" x2="378.9404" y2="357.9905">
			<stop  offset="0" style="stop-color:#505050"/>
			<stop  offset="0.4725" style="stop-color:#525252"/>
			<stop  offset="0.7305" style="stop-color:#5A5A5A"/>
			<stop  offset="0.9361" style="stop-color:#686868"/>
			<stop  offset="1" style="stop-color:#6E6E6E"/>
		</linearGradient>
		<polygon class="st48" points="370.6,347.5 386.2,347.5 387.3,358 371.4,358 		"/>
		<linearGradient id="SVGID_47_" gradientUnits="userSpaceOnUse" x1="402.5904" y1="347.4905" x2="402.5904" y2="357.9905">
			<stop  offset="0" style="stop-color:#505050"/>
			<stop  offset="0.4725" style="stop-color:#525252"/>
			<stop  offset="0.7305" style="stop-color:#5A5A5A"/>
			<stop  offset="0.9361" style="stop-color:#686868"/>
			<stop  offset="1" style="stop-color:#6E6E6E"/>
		</linearGradient>
		<polygon class="st49" points="394,347.5 409.7,347.5 411.2,358 395.3,358 		"/>
		<linearGradient id="SVGID_48_" gradientUnits="userSpaceOnUse" x1="426.2904" y1="347.4905" x2="426.2904" y2="357.9905">
			<stop  offset="0" style="stop-color:#505050"/>
			<stop  offset="0.4725" style="stop-color:#525252"/>
			<stop  offset="0.7305" style="stop-color:#5A5A5A"/>
			<stop  offset="0.9361" style="stop-color:#686868"/>
			<stop  offset="1" style="stop-color:#6E6E6E"/>
		</linearGradient>
		<polygon class="st50" points="417.5,347.5 433.2,347.5 435.1,358 419.1,358 		"/>
		<linearGradient id="SVGID_49_" gradientUnits="userSpaceOnUse" x1="449.9904" y1="347.4905" x2="449.9904" y2="357.9905">
			<stop  offset="0" style="stop-color:#505050"/>
			<stop  offset="0.4725" style="stop-color:#525252"/>
			<stop  offset="0.7305" style="stop-color:#5A5A5A"/>
			<stop  offset="0.9361" style="stop-color:#686868"/>
			<stop  offset="1" style="stop-color:#6E6E6E"/>
		</linearGradient>
		<polygon class="st51" points="441,347.5 456.6,347.5 459,358 443,358 		"/>
		<linearGradient id="SVGID_50_" gradientUnits="userSpaceOnUse" x1="473.6404" y1="347.4905" x2="473.6404" y2="357.9905">
			<stop  offset="0" style="stop-color:#505050"/>
			<stop  offset="0.4725" style="stop-color:#525252"/>
			<stop  offset="0.7305" style="stop-color:#5A5A5A"/>
			<stop  offset="0.9361" style="stop-color:#686868"/>
			<stop  offset="1" style="stop-color:#6E6E6E"/>
		</linearGradient>
		<polygon class="st52" points="464.5,347.5 480.1,347.5 482.8,358 466.9,358 		"/>
		<linearGradient id="SVGID_51_" gradientUnits="userSpaceOnUse" x1="323.9404" y1="493.3905" x2="323.9404" y2="482.3905">
			<stop  offset="0" style="stop-color:#3C3C3C"/>
			<stop  offset="1" style="stop-color:#8B8B88"/>
		</linearGradient>
		<path class="st53" d="M524.4,493.4H123.5c-6.1,0-11-4.9-11-11l0,0h422.9l0,0C535.4,488.4,530.5,493.4,524.4,493.4z"/>
		<linearGradient id="SVGID_52_" gradientUnits="userSpaceOnUse" x1="269.1243" y1="453.9905" x2="378.6565" y2="453.9905">
			<stop  offset="0" style="stop-color:#545B54"/>
			<stop  offset="1" style="stop-color:#8B8B88"/>
		</linearGradient>
		<path class="st54" d="M373.1,436.5c-0.4-2.5-2.6-4.3-5.1-4.3h-44.1h-44.1c-2.5,0-4.7,1.8-5.1,4.3l-5.5,33.3c-0.5,3.2,1.9,6,5.1,6
			h49.6h49.6c3.2,0,5.6-2.9,5.1-6L373.1,436.5z"/>
		<g>
			<g>
				<rect x="184.3" y="149.8" class="st55" width="35.9" height="3.7"/>
			</g>
			<g>
				<rect x="230.2" y="177.5" class="st55" width="25.9" height="3.7"/>
			</g>
			<g>
				<rect x="260.2" y="177.5" class="st56" width="17.2" height="3.7"/>
			</g>
			<g>
				<rect x="184.7" y="247" class="st56" width="17.2" height="3.7"/>
			</g>
			<g>
				<rect x="280.8" y="177.5" class="st55" width="41.5" height="3.7"/>
			</g>
			<g>
				<rect x="184.7" y="233.1" class="st55" width="26.7" height="3.7"/>
			</g>
			<g>
				<rect x="221.9" y="260.8" class="st55" width="16.3" height="3.7"/>
			</g>
			<g>
				<rect x="184.7" y="260.8" class="st56" width="32.2" height="3.7"/>
			</g>
			<g>
				<rect x="184.7" y="274.6" class="st55" width="17.8" height="3.7"/>
			</g>
			<g>
				<rect x="227.2" y="149.8" class="st55" width="25.5" height="3.7"/>
			</g>
			<g>
				<rect x="227.2" y="191.3" class="st56" width="25.5" height="3.7"/>
			</g>
			<g>
				<rect x="214.5" y="205.1" class="st55" width="10.9" height="3.7"/>
			</g>
			<g>
				<rect x="203.6" y="219.1" class="st55" width="24.4" height="3.7"/>
			</g>
			<g>
				<rect x="231.7" y="219.1" class="st56" width="33.7" height="3.7"/>
			</g>
			<g>
				<rect x="184.7" y="205.2" class="st56" width="25.5" height="3.7"/>
			</g>
			<g>
				<rect x="184.7" y="219.1" class="st56" width="15.1" height="3.7"/>
			</g>
			<g>
				<rect x="230.5" y="205.2" class="st57" width="14.3" height="3.7"/>
			</g>
			<g>
				<rect x="185.2" y="288.5" class="st57" width="14.3" height="3.7"/>
			</g>
			<g>
				<rect x="184.6" y="177.5" class="st55" width="25.5" height="3.7"/>
			</g>
			<g>
				<rect x="207.2" y="247" class="st55" width="25.5" height="3.7"/>
			</g>
			<g>
				<rect x="207.5" y="274.6" class="st55" width="25.5" height="3.7"/>
			</g>
			<g>
				<rect x="252.7" y="274.6" class="st55" width="25.5" height="3.7"/>
			</g>
			<g>
				<rect x="184.6" y="191.3" class="st55" width="36.3" height="3.7"/>
			</g>
			<g>
				<rect x="354.7" y="149.8" class="st55" width="25.5" height="3.7"/>
			</g>
			<g>
				<rect x="264" y="288.5" class="st55" width="25.5" height="3.7"/>
			</g>
			<g>
				<rect x="388.1" y="149.8" class="st55" width="17" height="3.7"/>
			</g>
			<g>
				<rect x="445.8" y="163.6" class="st55" width="17" height="3.7"/>
			</g>
			<g>
				<rect x="259.5" y="149.8" class="st56" width="32.4" height="3.7"/>
			</g>
			<g>
				<rect x="385.9" y="163.6" class="st56" width="32.4" height="3.7"/>
			</g>
			<g>
				<rect x="346.1" y="177.5" class="st56" width="32.4" height="3.7"/>
			</g>
			<g>
				<rect x="303.9" y="191.3" class="st56" width="32.4" height="3.7"/>
			</g>
			<g>
				<rect x="382.6" y="177.5" class="st55" width="23.1" height="3.7"/>
			</g>
			<g>
				<rect x="315.9" y="149.8" class="st57" width="32.4" height="3.7"/>
			</g>
			<g>
				<rect x="278.9" y="191.3" class="st57" width="19" height="3.7"/>
			</g>
			<g>
				<rect x="264" y="247.2" class="st57" width="19" height="3.7"/>
			</g>
			<g>
				<rect x="297.9" y="149.8" class="st55" width="11.9" height="3.7"/>
			</g>
			<g>
				<rect x="259.5" y="191.3" class="st55" width="11.9" height="3.7"/>
			</g>
			<g>
				<rect x="426.2" y="163.6" class="st55" width="11.9" height="3.7"/>
			</g>
			<g>
				<rect x="184.3" y="163.6" class="st56" width="18.6" height="3.7"/>
			</g>
			<g>
				<rect x="233.9" y="233.2" class="st56" width="14.7" height="3.7"/>
			</g>
			<g>
				<rect x="207.5" y="163.6" class="st56" width="6" height="3.7"/>
			</g>
			<g>
				<rect x="330.6" y="163.6" class="st55" width="49.6" height="3.7"/>
			</g>
			<g>
				<rect x="283" y="274.6" class="st55" width="49.6" height="3.7"/>
			</g>
			<g>
				<rect x="217.9" y="163.6" class="st57" width="6.1" height="3.7"/>
			</g>
			<g>
				<rect x="309.8" y="163.6" class="st56" width="16.2" height="3.7"/>
			</g>
			<g>
				<rect x="326" y="177.5" class="st57" width="16.2" height="3.7"/>
			</g>
			<g>
				<rect x="242.6" y="288.5" class="st57" width="16.2" height="3.7"/>
			</g>
			<g>
				<rect x="271" y="163.6" class="st56" width="34.5" height="3.7"/>
			</g>
			<g>
				<rect x="238.9" y="247.2" class="st56" width="20.2" height="3.7"/>
			</g>
			<g>
				<rect x="237.6" y="274.6" class="st56" width="10.1" height="3.7"/>
			</g>
			<g>
				<rect x="254.2" y="163.6" class="st55" width="11.9" height="3.7"/>
			</g>
			<g>
				<rect x="214.3" y="177.5" class="st57" width="11.9" height="3.7"/>
			</g>
			<g>
				<rect x="216.6" y="233.2" class="st57" width="11.9" height="3.7"/>
			</g>
			<g>
				<rect x="229" y="163.6" class="st56" width="20.7" height="3.7"/>
			</g>
		</g>
		<g class="st58">
			<path class="st59" d="M531.9,310.2h-150c-2.8,0-5.2-2.3-5.2-5.2V201c0-2.8,2.3-5.2,5.2-5.2h150c2.8,0,5.2,2.3,5.2,5.2v104
				C537.1,307.9,534.8,310.2,531.9,310.2z"/>
		</g>
		<g>
			<g>
				<path class="st60" d="M519.8,262.6H494c-1.1,0-2-0.9-2-2v-4c0-1.1,0.9-2,2-2h25.8c1.1,0,2,0.9,2,2v4
					C521.8,261.8,520.9,262.6,519.8,262.6z"/>
			</g>
		</g>
		<g>
			<g>
				<path class="st60" d="M519.8,277.5H494c-1.1,0-2-0.9-2-2v-4c0-1.1,0.9-2,2-2h25.8c1.1,0,2,0.9,2,2v4
					C521.8,276.6,520.9,277.5,519.8,277.5z"/>
			</g>
		</g>
		<g>
			<g>
				<path class="st60" d="M519.8,292.4H494c-1.1,0-2-0.9-2-2v-4c0-1.1,0.9-2,2-2h25.8c1.1,0,2,0.9,2,2v4
					C521.8,291.5,520.9,292.4,519.8,292.4z"/>
			</g>
		</g>
		<g>
			<g>
				<g>
					<path class="st60" d="M477.6,237c-6.6-18.5-24.3-29.9-43-29.3c-4.5,0.1-9.1,1-13.6,2.6c-13.6,4.9-23.3,15.7-27.3,28.5
						c-2.8,8.9-2.8,18.7,0.6,28.1c0.3,0.9,0.7,1.9,1.1,2.8c1.8,4.1,4.1,7.8,6.9,11c11.6,13.6,30.8,19.4,48.6,13
						C473.8,285.3,485.8,260,477.6,237z M447.1,283.1c-13.4,4.8-27.8,0.5-36.5-9.7c-2.1-2.4-3.8-5.2-5.1-8.3
						c-0.3-0.7-0.6-1.4-0.8-2.1c-2.5-7.1-2.5-14.4-0.4-21.1c3-9.6,10.3-17.7,20.5-21.4c3.4-1.2,6.8-1.8,10.2-1.9
						c14-0.4,27.3,8.1,32.2,22C473.3,258,464.3,277,447.1,283.1z"/>
				</g>
			</g>
			<g>
				<g>
					<path class="st61" d="M404.2,242l-10.6-3.3c4-12.8,13.8-23.6,27.3-28.5c4.5-1.6,9.1-2.4,13.6-2.6l0.3,11.1
						c-3.4,0.1-6.8,0.7-10.2,1.9C414.5,224.3,407.2,232.4,404.2,242z"/>
				</g>
			</g>
			<g>
				<g>
					<path class="st57" d="M405.5,265.1l-10.2,4.4c-0.4-0.9-0.8-1.8-1.1-2.8c-3.4-9.4-3.4-19.2-0.6-28.1l10.6,3.3
						c-2.1,6.6-2.1,14,0.4,21.1C404.9,263.8,405.2,264.5,405.5,265.1z"/>
				</g>
			</g>
			<g>
				<g>
					<path class="st61" d="M402.2,280.6c-2.8-3.2-5.1-6.9-6.9-11l10.2-4.4c1.3,3.1,3.1,5.8,5.1,8.3L402.2,280.6z"/>
				</g>
			</g>
		</g>
	</g>
</g>
</svg>
